%TF.GenerationSoftware,KiCad,Pcbnew,10.0.0*%
%TF.CreationDate,2026-04-05T08:07:09+02:00*%
%TF.ProjectId,schneid-mr12-adapter,7363686e-6569-4642-9d6d-7231322d6164,1.0*%
%TF.SameCoordinates,Original*%
%TF.FileFunction,Copper,L1,Top*%
%TF.FilePolarity,Positive*%
%FSLAX46Y46*%
G04 Gerber Fmt 4.6, Leading zero omitted, Abs format (unit mm)*
G04 Created by KiCad (PCBNEW 10.0.0) date 2026-04-05 08:07:09*
%MOMM*%
%LPD*%
G01*
G04 APERTURE LIST*
%TA.AperFunction,SMDPad,CuDef*%
%ADD10R,2.400000X1.000000*%
%TD*%
%TA.AperFunction,SMDPad,CuDef*%
%ADD11R,1.550000X0.600000*%
%TD*%
%TA.AperFunction,SMDPad,CuDef*%
%ADD12R,1.600000X1.000000*%
%TD*%
%TA.AperFunction,SMDPad,CuDef*%
%ADD13R,3.500000X2.300000*%
%TD*%
%TA.AperFunction,SMDPad,CuDef*%
%ADD14R,0.900000X1.200000*%
%TD*%
%TA.AperFunction,SMDPad,CuDef*%
%ADD15R,1.600000X1.800000*%
%TD*%
%TA.AperFunction,SMDPad,CuDef*%
%ADD16R,1.000000X1.500000*%
%TD*%
%TA.AperFunction,ComponentPad*%
%ADD17C,2.400000*%
%TD*%
%TA.AperFunction,ComponentPad*%
%ADD18C,2.100000*%
%TD*%
%TA.AperFunction,Conductor*%
%ADD19C,0.250000*%
%TD*%
%TA.AperFunction,Conductor*%
%ADD20C,0.400000*%
%TD*%
G04 APERTURE END LIST*
D10*
%TO.P,U1,1*%
%TO.N,GPIO5_RX485*%
X12700000Y-17000000D03*
%TO.P,U1,2*%
%TO.N,GPIO4_TX485*%
X12700000Y-18100000D03*
%TO.P,U1,3*%
%TO.N,GPIO3_DERE*%
X12700000Y-19200000D03*
%TO.P,U1,4*%
%TO.N,N/C*%
X12700000Y-20300000D03*
%TO.P,U1,5*%
X12700000Y-21400000D03*
%TO.P,U1,6*%
X12700000Y-22500000D03*
%TO.P,U1,7*%
X12700000Y-23600000D03*
%TO.P,U1,8*%
X12700000Y-24700000D03*
%TO.P,U1,9*%
X12700000Y-25800000D03*
%TO.P,U1,10*%
%TO.N,GND*%
X12700000Y-26900000D03*
%TO.P,U1,11*%
X12700000Y-28000000D03*
%TO.P,U1,12*%
X31300000Y-17000000D03*
%TO.P,U1,13*%
%TO.N,N/C*%
X31300000Y-18100000D03*
%TO.P,U1,14*%
X31300000Y-19200000D03*
%TO.P,U1,15*%
X31300000Y-20300000D03*
%TO.P,U1,16*%
%TO.N,GPIO9_BOOT*%
X31300000Y-21400000D03*
%TO.P,U1,17*%
%TO.N,N/C*%
X31300000Y-22500000D03*
%TO.P,U1,18*%
X31300000Y-23600000D03*
%TO.P,U1,19*%
X31300000Y-24700000D03*
%TO.P,U1,20*%
%TO.N,GPIO19_USB_DP*%
X31300000Y-25800000D03*
%TO.P,U1,21*%
%TO.N,GPIO18_USB_DN*%
X31300000Y-26900000D03*
%TO.P,U1,22*%
%TO.N,EN*%
X31300000Y-28000000D03*
%TO.P,U1,23*%
%TO.N,GND*%
X13600000Y-29400000D03*
%TO.P,U1,24*%
X14800000Y-29400000D03*
%TO.P,U1,25*%
X16000000Y-29400000D03*
%TO.P,U1,26*%
X17200000Y-29400000D03*
%TO.P,U1,27*%
X18400000Y-29400000D03*
%TO.P,U1,28*%
X19600000Y-29400000D03*
%TO.P,U1,29*%
X20800000Y-29400000D03*
%TO.P,U1,30*%
X22000000Y-29400000D03*
%TO.P,U1,31*%
X23200000Y-29400000D03*
%TO.P,U1,32*%
X24400000Y-29400000D03*
%TO.P,U1,33*%
X25600000Y-29400000D03*
%TO.P,U1,34*%
X26800000Y-29400000D03*
%TO.P,U1,35*%
X28000000Y-29400000D03*
%TO.P,U1,36*%
X29200000Y-29400000D03*
%TO.P,U1,37*%
X30400000Y-29400000D03*
%TO.P,U1,38*%
%TO.N,+3V3*%
X13600000Y-15600000D03*
%TO.P,U1,39*%
%TO.N,GND*%
X14800000Y-15600000D03*
%TO.P,U1,40*%
X16000000Y-15600000D03*
%TO.P,U1,41*%
X17200000Y-15600000D03*
%TO.P,U1,42*%
X18400000Y-15600000D03*
%TO.P,U1,43*%
X19600000Y-15600000D03*
%TO.P,U1,44*%
X20800000Y-15600000D03*
%TO.P,U1,45*%
X22000000Y-15600000D03*
%TO.P,U1,46*%
X23200000Y-15600000D03*
%TO.P,U1,47*%
X24400000Y-15600000D03*
%TO.P,U1,48*%
X25600000Y-15600000D03*
%TO.P,U1,49*%
X26800000Y-15600000D03*
%TO.P,U1,50*%
X28000000Y-15600000D03*
%TO.P,U1,51*%
X29200000Y-15600000D03*
%TO.P,U1,52*%
X30400000Y-15600000D03*
%TD*%
D11*
%TO.P,U2,1*%
%TO.N,GPIO5_RX485*%
X43300000Y-20595000D03*
%TO.P,U2,2*%
%TO.N,GPIO3_DERE*%
X43300000Y-21865000D03*
%TO.P,U2,3*%
X43300000Y-23135000D03*
%TO.P,U2,4*%
%TO.N,GPIO4_TX485*%
X43300000Y-24405000D03*
%TO.P,U2,5*%
%TO.N,GND*%
X48700000Y-24405000D03*
%TO.P,U2,6*%
%TO.N,RS485_A*%
X48700000Y-23135000D03*
%TO.P,U2,7*%
%TO.N,RS485_B*%
X48700000Y-21865000D03*
%TO.P,U2,8*%
%TO.N,+3V3*%
X48700000Y-20595000D03*
%TD*%
D12*
%TO.P,U3,1*%
%TO.N,GND*%
X5700000Y-32950000D03*
%TO.P,U3,2*%
%TO.N,+3V3*%
X8000000Y-32950000D03*
%TO.P,U3,3*%
%TO.N,+5V_IN*%
X10300000Y-32950000D03*
D13*
%TO.P,U3,4*%
%TO.N,+3V3*%
X8000000Y-28900000D03*
%TD*%
D14*
%TO.P,C1,1*%
%TO.N,+3V3*%
X45037500Y-15000000D03*
%TO.P,C1,2*%
%TO.N,GND*%
X46962500Y-15000000D03*
%TD*%
%TO.P,C2,1*%
%TO.N,+3V3*%
X21037500Y-10000000D03*
%TO.P,C2,2*%
%TO.N,GND*%
X22962500Y-10000000D03*
%TD*%
D15*
%TO.P,C3,1*%
%TO.N,+3V3*%
X12500000Y-10000000D03*
%TO.P,C3,2*%
%TO.N,GND*%
X15500000Y-10000000D03*
%TD*%
%TO.P,C4,1*%
%TO.N,+5V_IN*%
X6500000Y-38000000D03*
%TO.P,C4,2*%
%TO.N,GND*%
X9500000Y-38000000D03*
%TD*%
D14*
%TO.P,R1,1*%
%TO.N,+3V3*%
X29037500Y-8000000D03*
%TO.P,R1,2*%
%TO.N,EN*%
X30962500Y-8000000D03*
%TD*%
%TO.P,R2,1*%
%TO.N,+3V3*%
X34037500Y-8000000D03*
%TO.P,R2,2*%
%TO.N,GPIO9_BOOT*%
X35962500Y-8000000D03*
%TD*%
%TO.P,R3,1*%
%TO.N,RS485_A*%
X56037500Y-30000000D03*
%TO.P,R3,2*%
%TO.N,RS485_B*%
X57962500Y-30000000D03*
%TD*%
%TO.P,R4,1*%
%TO.N,+3V3*%
X54037500Y-33000000D03*
%TO.P,R4,2*%
%TO.N,N/C*%
X55962500Y-33000000D03*
%TD*%
%TO.P,D1,K*%
%TO.N,GND*%
X54037500Y-37000000D03*
%TO.P,D1,A*%
%TO.N,N/C*%
X55962500Y-37000000D03*
%TD*%
D16*
%TO.P,SW1,1*%
%TO.N,EN*%
X31100000Y-36500000D03*
%TO.P,SW1,2*%
X31100000Y-39500000D03*
%TO.P,SW1,3*%
%TO.N,GND*%
X34900000Y-36500000D03*
%TO.P,SW1,4*%
X34900000Y-39500000D03*
%TD*%
%TO.P,SW2,1*%
%TO.N,GPIO9_BOOT*%
X38100000Y-36500000D03*
%TO.P,SW2,2*%
X38100000Y-39500000D03*
%TO.P,SW2,3*%
%TO.N,GND*%
X41900000Y-36500000D03*
%TO.P,SW2,4*%
X41900000Y-39500000D03*
%TD*%
D17*
%TO.P,J1,1*%
%TO.N,+5V_IN*%
X3500000Y-10000000D03*
%TO.P,J1,2*%
%TO.N,GND*%
X8500000Y-10000000D03*
%TD*%
D18*
%TO.P,J2,1*%
%TO.N,RS485_A*%
X60000000Y-20750000D03*
%TO.P,J2,2*%
%TO.N,RS485_B*%
X60000000Y-24250000D03*
%TD*%
%TO.N,GPIO5_RX485*%
D19*
X12700000Y-17000000D02*
X12700000Y-20595000D01*
X12700000Y-20595000D02*
X43300000Y-20595000D01*
%TO.N,GPIO4_TX485*%
X12700000Y-18100000D02*
X12700000Y-24405000D01*
X12700000Y-24405000D02*
X43300000Y-24405000D01*
%TO.N,GPIO3_DERE*%
X12700000Y-19200000D02*
X12700000Y-21865000D01*
X12700000Y-21865000D02*
X43300000Y-21865000D01*
X43300000Y-21865000D02*
X43300000Y-23135000D01*
%TO.N,RS485_A*%
X48700000Y-23135000D02*
X60000000Y-20750000D01*
%TO.N,RS485_B*%
X48700000Y-21865000D02*
X60000000Y-24250000D01*
%TO.N,+3V3*%
D20*
X8000000Y-28900000D02*
X8000000Y-15600000D01*
X8000000Y-15600000D02*
X13600000Y-15600000D01*
X13600000Y-15600000D02*
X46000000Y-15600000D01*
X46000000Y-15600000D02*
X48700000Y-20595000D01*
%TD*%
M02*
