%TF.GenerationSoftware,KiCad,Pcbnew,10.0.0*%
%TF.CreationDate,2026-04-05T08:07:09+02:00*%
%TF.ProjectId,schneid-mr12-adapter,7363686e-6569-4642-9d6d-7231322d6164,1.0*%
%TF.SameCoordinates,Original*%
%TF.FileFunction,AssemblyDrawing,Top*%
%FSLAX46Y46*%
G04 Gerber Fmt 4.6, Leading zero omitted, Abs format (unit mm)*
G04 Created by KiCad (PCBNEW 10.0.0) date 2026-04-05 08:07:09*
%MOMM*%
%LPD*%
G01*
G04 APERTURE LIST*
%ADD10C,0.150000*%
%ADD11C,0.100000*%
G04 APERTURE END LIST*
D10*
X14976191Y-26431009D02*
X15309524Y-26431009D01*
X15452381Y-26954819D02*
X14976191Y-26954819D01*
X14976191Y-26954819D02*
X14976191Y-25954819D01*
X14976191Y-25954819D02*
X15452381Y-25954819D01*
X15833334Y-26907200D02*
X15976191Y-26954819D01*
X15976191Y-26954819D02*
X16214286Y-26954819D01*
X16214286Y-26954819D02*
X16309524Y-26907200D01*
X16309524Y-26907200D02*
X16357143Y-26859580D01*
X16357143Y-26859580D02*
X16404762Y-26764342D01*
X16404762Y-26764342D02*
X16404762Y-26669104D01*
X16404762Y-26669104D02*
X16357143Y-26573866D01*
X16357143Y-26573866D02*
X16309524Y-26526247D01*
X16309524Y-26526247D02*
X16214286Y-26478628D01*
X16214286Y-26478628D02*
X16023810Y-26431009D01*
X16023810Y-26431009D02*
X15928572Y-26383390D01*
X15928572Y-26383390D02*
X15880953Y-26335771D01*
X15880953Y-26335771D02*
X15833334Y-26240533D01*
X15833334Y-26240533D02*
X15833334Y-26145295D01*
X15833334Y-26145295D02*
X15880953Y-26050057D01*
X15880953Y-26050057D02*
X15928572Y-26002438D01*
X15928572Y-26002438D02*
X16023810Y-25954819D01*
X16023810Y-25954819D02*
X16261905Y-25954819D01*
X16261905Y-25954819D02*
X16404762Y-26002438D01*
X16833334Y-26954819D02*
X16833334Y-25954819D01*
X16833334Y-25954819D02*
X17214286Y-25954819D01*
X17214286Y-25954819D02*
X17309524Y-26002438D01*
X17309524Y-26002438D02*
X17357143Y-26050057D01*
X17357143Y-26050057D02*
X17404762Y-26145295D01*
X17404762Y-26145295D02*
X17404762Y-26288152D01*
X17404762Y-26288152D02*
X17357143Y-26383390D01*
X17357143Y-26383390D02*
X17309524Y-26431009D01*
X17309524Y-26431009D02*
X17214286Y-26478628D01*
X17214286Y-26478628D02*
X16833334Y-26478628D01*
X17738096Y-25954819D02*
X18357143Y-25954819D01*
X18357143Y-25954819D02*
X18023810Y-26335771D01*
X18023810Y-26335771D02*
X18166667Y-26335771D01*
X18166667Y-26335771D02*
X18261905Y-26383390D01*
X18261905Y-26383390D02*
X18309524Y-26431009D01*
X18309524Y-26431009D02*
X18357143Y-26526247D01*
X18357143Y-26526247D02*
X18357143Y-26764342D01*
X18357143Y-26764342D02*
X18309524Y-26859580D01*
X18309524Y-26859580D02*
X18261905Y-26907200D01*
X18261905Y-26907200D02*
X18166667Y-26954819D01*
X18166667Y-26954819D02*
X17880953Y-26954819D01*
X17880953Y-26954819D02*
X17785715Y-26907200D01*
X17785715Y-26907200D02*
X17738096Y-26859580D01*
X18738096Y-26050057D02*
X18785715Y-26002438D01*
X18785715Y-26002438D02*
X18880953Y-25954819D01*
X18880953Y-25954819D02*
X19119048Y-25954819D01*
X19119048Y-25954819D02*
X19214286Y-26002438D01*
X19214286Y-26002438D02*
X19261905Y-26050057D01*
X19261905Y-26050057D02*
X19309524Y-26145295D01*
X19309524Y-26145295D02*
X19309524Y-26240533D01*
X19309524Y-26240533D02*
X19261905Y-26383390D01*
X19261905Y-26383390D02*
X18690477Y-26954819D01*
X18690477Y-26954819D02*
X19309524Y-26954819D01*
X19738096Y-26573866D02*
X20500001Y-26573866D01*
X21547619Y-26859580D02*
X21500000Y-26907200D01*
X21500000Y-26907200D02*
X21357143Y-26954819D01*
X21357143Y-26954819D02*
X21261905Y-26954819D01*
X21261905Y-26954819D02*
X21119048Y-26907200D01*
X21119048Y-26907200D02*
X21023810Y-26811961D01*
X21023810Y-26811961D02*
X20976191Y-26716723D01*
X20976191Y-26716723D02*
X20928572Y-26526247D01*
X20928572Y-26526247D02*
X20928572Y-26383390D01*
X20928572Y-26383390D02*
X20976191Y-26192914D01*
X20976191Y-26192914D02*
X21023810Y-26097676D01*
X21023810Y-26097676D02*
X21119048Y-26002438D01*
X21119048Y-26002438D02*
X21261905Y-25954819D01*
X21261905Y-25954819D02*
X21357143Y-25954819D01*
X21357143Y-25954819D02*
X21500000Y-26002438D01*
X21500000Y-26002438D02*
X21547619Y-26050057D01*
X21880953Y-25954819D02*
X22500000Y-25954819D01*
X22500000Y-25954819D02*
X22166667Y-26335771D01*
X22166667Y-26335771D02*
X22309524Y-26335771D01*
X22309524Y-26335771D02*
X22404762Y-26383390D01*
X22404762Y-26383390D02*
X22452381Y-26431009D01*
X22452381Y-26431009D02*
X22500000Y-26526247D01*
X22500000Y-26526247D02*
X22500000Y-26764342D01*
X22500000Y-26764342D02*
X22452381Y-26859580D01*
X22452381Y-26859580D02*
X22404762Y-26907200D01*
X22404762Y-26907200D02*
X22309524Y-26954819D01*
X22309524Y-26954819D02*
X22023810Y-26954819D01*
X22023810Y-26954819D02*
X21928572Y-26907200D01*
X21928572Y-26907200D02*
X21880953Y-26859580D01*
X22928572Y-26573866D02*
X23690477Y-26573866D01*
X24166667Y-26954819D02*
X24166667Y-25954819D01*
X24166667Y-25954819D02*
X24500000Y-26669104D01*
X24500000Y-26669104D02*
X24833333Y-25954819D01*
X24833333Y-25954819D02*
X24833333Y-26954819D01*
X25309524Y-26954819D02*
X25309524Y-25954819D01*
X25785714Y-26954819D02*
X25785714Y-25954819D01*
X25785714Y-25954819D02*
X26357142Y-26954819D01*
X26357142Y-26954819D02*
X26357142Y-25954819D01*
X26833333Y-26954819D02*
X26833333Y-25954819D01*
X27309523Y-26573866D02*
X28071428Y-26573866D01*
X29071427Y-26954819D02*
X28499999Y-26954819D01*
X28785713Y-26954819D02*
X28785713Y-25954819D01*
X28785713Y-25954819D02*
X28690475Y-26097676D01*
X28690475Y-26097676D02*
X28595237Y-26192914D01*
X28595237Y-26192914D02*
X28499999Y-26240533D01*
X41357143Y-26954819D02*
X41357143Y-25954819D01*
X41357143Y-25954819D02*
X41690476Y-26669104D01*
X41690476Y-26669104D02*
X42023809Y-25954819D01*
X42023809Y-25954819D02*
X42023809Y-26954819D01*
X42452381Y-26669104D02*
X42928571Y-26669104D01*
X42357143Y-26954819D02*
X42690476Y-25954819D01*
X42690476Y-25954819D02*
X43023809Y-26954819D01*
X43261905Y-25954819D02*
X43928571Y-26954819D01*
X43928571Y-25954819D02*
X43261905Y-26954819D01*
X44738095Y-26288152D02*
X44738095Y-26954819D01*
X44500000Y-25907200D02*
X44261905Y-26621485D01*
X44261905Y-26621485D02*
X44880952Y-26621485D01*
X45404762Y-26383390D02*
X45309524Y-26335771D01*
X45309524Y-26335771D02*
X45261905Y-26288152D01*
X45261905Y-26288152D02*
X45214286Y-26192914D01*
X45214286Y-26192914D02*
X45214286Y-26145295D01*
X45214286Y-26145295D02*
X45261905Y-26050057D01*
X45261905Y-26050057D02*
X45309524Y-26002438D01*
X45309524Y-26002438D02*
X45404762Y-25954819D01*
X45404762Y-25954819D02*
X45595238Y-25954819D01*
X45595238Y-25954819D02*
X45690476Y-26002438D01*
X45690476Y-26002438D02*
X45738095Y-26050057D01*
X45738095Y-26050057D02*
X45785714Y-26145295D01*
X45785714Y-26145295D02*
X45785714Y-26192914D01*
X45785714Y-26192914D02*
X45738095Y-26288152D01*
X45738095Y-26288152D02*
X45690476Y-26335771D01*
X45690476Y-26335771D02*
X45595238Y-26383390D01*
X45595238Y-26383390D02*
X45404762Y-26383390D01*
X45404762Y-26383390D02*
X45309524Y-26431009D01*
X45309524Y-26431009D02*
X45261905Y-26478628D01*
X45261905Y-26478628D02*
X45214286Y-26573866D01*
X45214286Y-26573866D02*
X45214286Y-26764342D01*
X45214286Y-26764342D02*
X45261905Y-26859580D01*
X45261905Y-26859580D02*
X45309524Y-26907200D01*
X45309524Y-26907200D02*
X45404762Y-26954819D01*
X45404762Y-26954819D02*
X45595238Y-26954819D01*
X45595238Y-26954819D02*
X45690476Y-26907200D01*
X45690476Y-26907200D02*
X45738095Y-26859580D01*
X45738095Y-26859580D02*
X45785714Y-26764342D01*
X45785714Y-26764342D02*
X45785714Y-26573866D01*
X45785714Y-26573866D02*
X45738095Y-26478628D01*
X45738095Y-26478628D02*
X45690476Y-26431009D01*
X45690476Y-26431009D02*
X45595238Y-26383390D01*
X46690476Y-25954819D02*
X46214286Y-25954819D01*
X46214286Y-25954819D02*
X46166667Y-26431009D01*
X46166667Y-26431009D02*
X46214286Y-26383390D01*
X46214286Y-26383390D02*
X46309524Y-26335771D01*
X46309524Y-26335771D02*
X46547619Y-26335771D01*
X46547619Y-26335771D02*
X46642857Y-26383390D01*
X46642857Y-26383390D02*
X46690476Y-26431009D01*
X46690476Y-26431009D02*
X46738095Y-26526247D01*
X46738095Y-26526247D02*
X46738095Y-26764342D01*
X46738095Y-26764342D02*
X46690476Y-26859580D01*
X46690476Y-26859580D02*
X46642857Y-26907200D01*
X46642857Y-26907200D02*
X46547619Y-26954819D01*
X46547619Y-26954819D02*
X46309524Y-26954819D01*
X46309524Y-26954819D02*
X46214286Y-26907200D01*
X46214286Y-26907200D02*
X46166667Y-26859580D01*
X47166667Y-26431009D02*
X47500000Y-26431009D01*
X47642857Y-26954819D02*
X47166667Y-26954819D01*
X47166667Y-26954819D02*
X47166667Y-25954819D01*
X47166667Y-25954819D02*
X47642857Y-25954819D01*
X48023810Y-26907200D02*
X48166667Y-26954819D01*
X48166667Y-26954819D02*
X48404762Y-26954819D01*
X48404762Y-26954819D02*
X48500000Y-26907200D01*
X48500000Y-26907200D02*
X48547619Y-26859580D01*
X48547619Y-26859580D02*
X48595238Y-26764342D01*
X48595238Y-26764342D02*
X48595238Y-26669104D01*
X48595238Y-26669104D02*
X48547619Y-26573866D01*
X48547619Y-26573866D02*
X48500000Y-26526247D01*
X48500000Y-26526247D02*
X48404762Y-26478628D01*
X48404762Y-26478628D02*
X48214286Y-26431009D01*
X48214286Y-26431009D02*
X48119048Y-26383390D01*
X48119048Y-26383390D02*
X48071429Y-26335771D01*
X48071429Y-26335771D02*
X48023810Y-26240533D01*
X48023810Y-26240533D02*
X48023810Y-26145295D01*
X48023810Y-26145295D02*
X48071429Y-26050057D01*
X48071429Y-26050057D02*
X48119048Y-26002438D01*
X48119048Y-26002438D02*
X48214286Y-25954819D01*
X48214286Y-25954819D02*
X48452381Y-25954819D01*
X48452381Y-25954819D02*
X48595238Y-26002438D01*
X48976191Y-26669104D02*
X49452381Y-26669104D01*
X48880953Y-26954819D02*
X49214286Y-25954819D01*
X49214286Y-25954819D02*
X49547619Y-26954819D01*
X49880953Y-26573866D02*
X50642858Y-26573866D01*
X50261905Y-26954819D02*
X50261905Y-26192914D01*
X3000000Y-34169104D02*
X3476190Y-34169104D01*
X2904762Y-34454819D02*
X3238095Y-33454819D01*
X3238095Y-33454819D02*
X3571428Y-34454819D01*
X3904762Y-34454819D02*
X3904762Y-33454819D01*
X3904762Y-33454819D02*
X4238095Y-34169104D01*
X4238095Y-34169104D02*
X4571428Y-33454819D01*
X4571428Y-33454819D02*
X4571428Y-34454819D01*
X5000000Y-34407200D02*
X5142857Y-34454819D01*
X5142857Y-34454819D02*
X5380952Y-34454819D01*
X5380952Y-34454819D02*
X5476190Y-34407200D01*
X5476190Y-34407200D02*
X5523809Y-34359580D01*
X5523809Y-34359580D02*
X5571428Y-34264342D01*
X5571428Y-34264342D02*
X5571428Y-34169104D01*
X5571428Y-34169104D02*
X5523809Y-34073866D01*
X5523809Y-34073866D02*
X5476190Y-34026247D01*
X5476190Y-34026247D02*
X5380952Y-33978628D01*
X5380952Y-33978628D02*
X5190476Y-33931009D01*
X5190476Y-33931009D02*
X5095238Y-33883390D01*
X5095238Y-33883390D02*
X5047619Y-33835771D01*
X5047619Y-33835771D02*
X5000000Y-33740533D01*
X5000000Y-33740533D02*
X5000000Y-33645295D01*
X5000000Y-33645295D02*
X5047619Y-33550057D01*
X5047619Y-33550057D02*
X5095238Y-33502438D01*
X5095238Y-33502438D02*
X5190476Y-33454819D01*
X5190476Y-33454819D02*
X5428571Y-33454819D01*
X5428571Y-33454819D02*
X5571428Y-33502438D01*
X6523809Y-34454819D02*
X5952381Y-34454819D01*
X6238095Y-34454819D02*
X6238095Y-33454819D01*
X6238095Y-33454819D02*
X6142857Y-33597676D01*
X6142857Y-33597676D02*
X6047619Y-33692914D01*
X6047619Y-33692914D02*
X5952381Y-33740533D01*
X7476190Y-34454819D02*
X6904762Y-34454819D01*
X7190476Y-34454819D02*
X7190476Y-33454819D01*
X7190476Y-33454819D02*
X7095238Y-33597676D01*
X7095238Y-33597676D02*
X7000000Y-33692914D01*
X7000000Y-33692914D02*
X6904762Y-33740533D01*
X8428571Y-34454819D02*
X7857143Y-34454819D01*
X8142857Y-34454819D02*
X8142857Y-33454819D01*
X8142857Y-33454819D02*
X8047619Y-33597676D01*
X8047619Y-33597676D02*
X7952381Y-33692914D01*
X7952381Y-33692914D02*
X7857143Y-33740533D01*
X8761905Y-33454819D02*
X9428571Y-33454819D01*
X9428571Y-33454819D02*
X9000000Y-34454819D01*
X9809524Y-34073866D02*
X10571429Y-34073866D01*
X10952381Y-33454819D02*
X11571428Y-33454819D01*
X11571428Y-33454819D02*
X11238095Y-33835771D01*
X11238095Y-33835771D02*
X11380952Y-33835771D01*
X11380952Y-33835771D02*
X11476190Y-33883390D01*
X11476190Y-33883390D02*
X11523809Y-33931009D01*
X11523809Y-33931009D02*
X11571428Y-34026247D01*
X11571428Y-34026247D02*
X11571428Y-34264342D01*
X11571428Y-34264342D02*
X11523809Y-34359580D01*
X11523809Y-34359580D02*
X11476190Y-34407200D01*
X11476190Y-34407200D02*
X11380952Y-34454819D01*
X11380952Y-34454819D02*
X11095238Y-34454819D01*
X11095238Y-34454819D02*
X11000000Y-34407200D01*
X11000000Y-34407200D02*
X10952381Y-34359580D01*
X12000000Y-34359580D02*
X12047619Y-34407200D01*
X12047619Y-34407200D02*
X12000000Y-34454819D01*
X12000000Y-34454819D02*
X11952381Y-34407200D01*
X11952381Y-34407200D02*
X12000000Y-34359580D01*
X12000000Y-34359580D02*
X12000000Y-34454819D01*
X12380952Y-33454819D02*
X12999999Y-33454819D01*
X12999999Y-33454819D02*
X12666666Y-33835771D01*
X12666666Y-33835771D02*
X12809523Y-33835771D01*
X12809523Y-33835771D02*
X12904761Y-33883390D01*
X12904761Y-33883390D02*
X12952380Y-33931009D01*
X12952380Y-33931009D02*
X12999999Y-34026247D01*
X12999999Y-34026247D02*
X12999999Y-34264342D01*
X12999999Y-34264342D02*
X12952380Y-34359580D01*
X12952380Y-34359580D02*
X12904761Y-34407200D01*
X12904761Y-34407200D02*
X12809523Y-34454819D01*
X12809523Y-34454819D02*
X12523809Y-34454819D01*
X12523809Y-34454819D02*
X12428571Y-34407200D01*
X12428571Y-34407200D02*
X12380952Y-34359580D01*
X44452380Y-19454819D02*
X43880952Y-19454819D01*
X44166666Y-19454819D02*
X44166666Y-18454819D01*
X44166666Y-18454819D02*
X44071428Y-18597676D01*
X44071428Y-18597676D02*
X43976190Y-18692914D01*
X43976190Y-18692914D02*
X43880952Y-18740533D01*
X45071428Y-18454819D02*
X45166666Y-18454819D01*
X45166666Y-18454819D02*
X45261904Y-18502438D01*
X45261904Y-18502438D02*
X45309523Y-18550057D01*
X45309523Y-18550057D02*
X45357142Y-18645295D01*
X45357142Y-18645295D02*
X45404761Y-18835771D01*
X45404761Y-18835771D02*
X45404761Y-19073866D01*
X45404761Y-19073866D02*
X45357142Y-19264342D01*
X45357142Y-19264342D02*
X45309523Y-19359580D01*
X45309523Y-19359580D02*
X45261904Y-19407200D01*
X45261904Y-19407200D02*
X45166666Y-19454819D01*
X45166666Y-19454819D02*
X45071428Y-19454819D01*
X45071428Y-19454819D02*
X44976190Y-19407200D01*
X44976190Y-19407200D02*
X44928571Y-19359580D01*
X44928571Y-19359580D02*
X44880952Y-19264342D01*
X44880952Y-19264342D02*
X44833333Y-19073866D01*
X44833333Y-19073866D02*
X44833333Y-18835771D01*
X44833333Y-18835771D02*
X44880952Y-18645295D01*
X44880952Y-18645295D02*
X44928571Y-18550057D01*
X44928571Y-18550057D02*
X44976190Y-18502438D01*
X44976190Y-18502438D02*
X45071428Y-18454819D01*
X46023809Y-18454819D02*
X46119047Y-18454819D01*
X46119047Y-18454819D02*
X46214285Y-18502438D01*
X46214285Y-18502438D02*
X46261904Y-18550057D01*
X46261904Y-18550057D02*
X46309523Y-18645295D01*
X46309523Y-18645295D02*
X46357142Y-18835771D01*
X46357142Y-18835771D02*
X46357142Y-19073866D01*
X46357142Y-19073866D02*
X46309523Y-19264342D01*
X46309523Y-19264342D02*
X46261904Y-19359580D01*
X46261904Y-19359580D02*
X46214285Y-19407200D01*
X46214285Y-19407200D02*
X46119047Y-19454819D01*
X46119047Y-19454819D02*
X46023809Y-19454819D01*
X46023809Y-19454819D02*
X45928571Y-19407200D01*
X45928571Y-19407200D02*
X45880952Y-19359580D01*
X45880952Y-19359580D02*
X45833333Y-19264342D01*
X45833333Y-19264342D02*
X45785714Y-19073866D01*
X45785714Y-19073866D02*
X45785714Y-18835771D01*
X45785714Y-18835771D02*
X45833333Y-18645295D01*
X45833333Y-18645295D02*
X45880952Y-18550057D01*
X45880952Y-18550057D02*
X45928571Y-18502438D01*
X45928571Y-18502438D02*
X46023809Y-18454819D01*
X46785714Y-18788152D02*
X46785714Y-19454819D01*
X46785714Y-18883390D02*
X46833333Y-18835771D01*
X46833333Y-18835771D02*
X46928571Y-18788152D01*
X46928571Y-18788152D02*
X47071428Y-18788152D01*
X47071428Y-18788152D02*
X47166666Y-18835771D01*
X47166666Y-18835771D02*
X47214285Y-18931009D01*
X47214285Y-18931009D02*
X47214285Y-19454819D01*
X48023809Y-18931009D02*
X47690476Y-18931009D01*
X47690476Y-19454819D02*
X47690476Y-18454819D01*
X47690476Y-18454819D02*
X48166666Y-18454819D01*
X20452380Y-14454819D02*
X19880952Y-14454819D01*
X20166666Y-14454819D02*
X20166666Y-13454819D01*
X20166666Y-13454819D02*
X20071428Y-13597676D01*
X20071428Y-13597676D02*
X19976190Y-13692914D01*
X19976190Y-13692914D02*
X19880952Y-13740533D01*
X21071428Y-13454819D02*
X21166666Y-13454819D01*
X21166666Y-13454819D02*
X21261904Y-13502438D01*
X21261904Y-13502438D02*
X21309523Y-13550057D01*
X21309523Y-13550057D02*
X21357142Y-13645295D01*
X21357142Y-13645295D02*
X21404761Y-13835771D01*
X21404761Y-13835771D02*
X21404761Y-14073866D01*
X21404761Y-14073866D02*
X21357142Y-14264342D01*
X21357142Y-14264342D02*
X21309523Y-14359580D01*
X21309523Y-14359580D02*
X21261904Y-14407200D01*
X21261904Y-14407200D02*
X21166666Y-14454819D01*
X21166666Y-14454819D02*
X21071428Y-14454819D01*
X21071428Y-14454819D02*
X20976190Y-14407200D01*
X20976190Y-14407200D02*
X20928571Y-14359580D01*
X20928571Y-14359580D02*
X20880952Y-14264342D01*
X20880952Y-14264342D02*
X20833333Y-14073866D01*
X20833333Y-14073866D02*
X20833333Y-13835771D01*
X20833333Y-13835771D02*
X20880952Y-13645295D01*
X20880952Y-13645295D02*
X20928571Y-13550057D01*
X20928571Y-13550057D02*
X20976190Y-13502438D01*
X20976190Y-13502438D02*
X21071428Y-13454819D01*
X22023809Y-13454819D02*
X22119047Y-13454819D01*
X22119047Y-13454819D02*
X22214285Y-13502438D01*
X22214285Y-13502438D02*
X22261904Y-13550057D01*
X22261904Y-13550057D02*
X22309523Y-13645295D01*
X22309523Y-13645295D02*
X22357142Y-13835771D01*
X22357142Y-13835771D02*
X22357142Y-14073866D01*
X22357142Y-14073866D02*
X22309523Y-14264342D01*
X22309523Y-14264342D02*
X22261904Y-14359580D01*
X22261904Y-14359580D02*
X22214285Y-14407200D01*
X22214285Y-14407200D02*
X22119047Y-14454819D01*
X22119047Y-14454819D02*
X22023809Y-14454819D01*
X22023809Y-14454819D02*
X21928571Y-14407200D01*
X21928571Y-14407200D02*
X21880952Y-14359580D01*
X21880952Y-14359580D02*
X21833333Y-14264342D01*
X21833333Y-14264342D02*
X21785714Y-14073866D01*
X21785714Y-14073866D02*
X21785714Y-13835771D01*
X21785714Y-13835771D02*
X21833333Y-13645295D01*
X21833333Y-13645295D02*
X21880952Y-13550057D01*
X21880952Y-13550057D02*
X21928571Y-13502438D01*
X21928571Y-13502438D02*
X22023809Y-13454819D01*
X22785714Y-13788152D02*
X22785714Y-14454819D01*
X22785714Y-13883390D02*
X22833333Y-13835771D01*
X22833333Y-13835771D02*
X22928571Y-13788152D01*
X22928571Y-13788152D02*
X23071428Y-13788152D01*
X23071428Y-13788152D02*
X23166666Y-13835771D01*
X23166666Y-13835771D02*
X23214285Y-13931009D01*
X23214285Y-13931009D02*
X23214285Y-14454819D01*
X24023809Y-13931009D02*
X23690476Y-13931009D01*
X23690476Y-14454819D02*
X23690476Y-13454819D01*
X23690476Y-13454819D02*
X24166666Y-13454819D01*
X12928571Y-14454819D02*
X12357143Y-14454819D01*
X12642857Y-14454819D02*
X12642857Y-13454819D01*
X12642857Y-13454819D02*
X12547619Y-13597676D01*
X12547619Y-13597676D02*
X12452381Y-13692914D01*
X12452381Y-13692914D02*
X12357143Y-13740533D01*
X13547619Y-13454819D02*
X13642857Y-13454819D01*
X13642857Y-13454819D02*
X13738095Y-13502438D01*
X13738095Y-13502438D02*
X13785714Y-13550057D01*
X13785714Y-13550057D02*
X13833333Y-13645295D01*
X13833333Y-13645295D02*
X13880952Y-13835771D01*
X13880952Y-13835771D02*
X13880952Y-14073866D01*
X13880952Y-14073866D02*
X13833333Y-14264342D01*
X13833333Y-14264342D02*
X13785714Y-14359580D01*
X13785714Y-14359580D02*
X13738095Y-14407200D01*
X13738095Y-14407200D02*
X13642857Y-14454819D01*
X13642857Y-14454819D02*
X13547619Y-14454819D01*
X13547619Y-14454819D02*
X13452381Y-14407200D01*
X13452381Y-14407200D02*
X13404762Y-14359580D01*
X13404762Y-14359580D02*
X13357143Y-14264342D01*
X13357143Y-14264342D02*
X13309524Y-14073866D01*
X13309524Y-14073866D02*
X13309524Y-13835771D01*
X13309524Y-13835771D02*
X13357143Y-13645295D01*
X13357143Y-13645295D02*
X13404762Y-13550057D01*
X13404762Y-13550057D02*
X13452381Y-13502438D01*
X13452381Y-13502438D02*
X13547619Y-13454819D01*
X14738095Y-13788152D02*
X14738095Y-14454819D01*
X14309524Y-13788152D02*
X14309524Y-14311961D01*
X14309524Y-14311961D02*
X14357143Y-14407200D01*
X14357143Y-14407200D02*
X14452381Y-14454819D01*
X14452381Y-14454819D02*
X14595238Y-14454819D01*
X14595238Y-14454819D02*
X14690476Y-14407200D01*
X14690476Y-14407200D02*
X14738095Y-14359580D01*
X15547619Y-13931009D02*
X15214286Y-13931009D01*
X15214286Y-14454819D02*
X15214286Y-13454819D01*
X15214286Y-13454819D02*
X15690476Y-13454819D01*
X6928571Y-42454819D02*
X6357143Y-42454819D01*
X6642857Y-42454819D02*
X6642857Y-41454819D01*
X6642857Y-41454819D02*
X6547619Y-41597676D01*
X6547619Y-41597676D02*
X6452381Y-41692914D01*
X6452381Y-41692914D02*
X6357143Y-41740533D01*
X7547619Y-41454819D02*
X7642857Y-41454819D01*
X7642857Y-41454819D02*
X7738095Y-41502438D01*
X7738095Y-41502438D02*
X7785714Y-41550057D01*
X7785714Y-41550057D02*
X7833333Y-41645295D01*
X7833333Y-41645295D02*
X7880952Y-41835771D01*
X7880952Y-41835771D02*
X7880952Y-42073866D01*
X7880952Y-42073866D02*
X7833333Y-42264342D01*
X7833333Y-42264342D02*
X7785714Y-42359580D01*
X7785714Y-42359580D02*
X7738095Y-42407200D01*
X7738095Y-42407200D02*
X7642857Y-42454819D01*
X7642857Y-42454819D02*
X7547619Y-42454819D01*
X7547619Y-42454819D02*
X7452381Y-42407200D01*
X7452381Y-42407200D02*
X7404762Y-42359580D01*
X7404762Y-42359580D02*
X7357143Y-42264342D01*
X7357143Y-42264342D02*
X7309524Y-42073866D01*
X7309524Y-42073866D02*
X7309524Y-41835771D01*
X7309524Y-41835771D02*
X7357143Y-41645295D01*
X7357143Y-41645295D02*
X7404762Y-41550057D01*
X7404762Y-41550057D02*
X7452381Y-41502438D01*
X7452381Y-41502438D02*
X7547619Y-41454819D01*
X8738095Y-41788152D02*
X8738095Y-42454819D01*
X8309524Y-41788152D02*
X8309524Y-42311961D01*
X8309524Y-42311961D02*
X8357143Y-42407200D01*
X8357143Y-42407200D02*
X8452381Y-42454819D01*
X8452381Y-42454819D02*
X8595238Y-42454819D01*
X8595238Y-42454819D02*
X8690476Y-42407200D01*
X8690476Y-42407200D02*
X8738095Y-42359580D01*
X9547619Y-41931009D02*
X9214286Y-41931009D01*
X9214286Y-42454819D02*
X9214286Y-41454819D01*
X9214286Y-41454819D02*
X9690476Y-41454819D01*
X29404761Y-12454819D02*
X28833333Y-12454819D01*
X29119047Y-12454819D02*
X29119047Y-11454819D01*
X29119047Y-11454819D02*
X29023809Y-11597676D01*
X29023809Y-11597676D02*
X28928571Y-11692914D01*
X28928571Y-11692914D02*
X28833333Y-11740533D01*
X30023809Y-11454819D02*
X30119047Y-11454819D01*
X30119047Y-11454819D02*
X30214285Y-11502438D01*
X30214285Y-11502438D02*
X30261904Y-11550057D01*
X30261904Y-11550057D02*
X30309523Y-11645295D01*
X30309523Y-11645295D02*
X30357142Y-11835771D01*
X30357142Y-11835771D02*
X30357142Y-12073866D01*
X30357142Y-12073866D02*
X30309523Y-12264342D01*
X30309523Y-12264342D02*
X30261904Y-12359580D01*
X30261904Y-12359580D02*
X30214285Y-12407200D01*
X30214285Y-12407200D02*
X30119047Y-12454819D01*
X30119047Y-12454819D02*
X30023809Y-12454819D01*
X30023809Y-12454819D02*
X29928571Y-12407200D01*
X29928571Y-12407200D02*
X29880952Y-12359580D01*
X29880952Y-12359580D02*
X29833333Y-12264342D01*
X29833333Y-12264342D02*
X29785714Y-12073866D01*
X29785714Y-12073866D02*
X29785714Y-11835771D01*
X29785714Y-11835771D02*
X29833333Y-11645295D01*
X29833333Y-11645295D02*
X29880952Y-11550057D01*
X29880952Y-11550057D02*
X29928571Y-11502438D01*
X29928571Y-11502438D02*
X30023809Y-11454819D01*
X30785714Y-12454819D02*
X30785714Y-11454819D01*
X30880952Y-12073866D02*
X31166666Y-12454819D01*
X31166666Y-11788152D02*
X30785714Y-12169104D01*
X34404761Y-12454819D02*
X33833333Y-12454819D01*
X34119047Y-12454819D02*
X34119047Y-11454819D01*
X34119047Y-11454819D02*
X34023809Y-11597676D01*
X34023809Y-11597676D02*
X33928571Y-11692914D01*
X33928571Y-11692914D02*
X33833333Y-11740533D01*
X35023809Y-11454819D02*
X35119047Y-11454819D01*
X35119047Y-11454819D02*
X35214285Y-11502438D01*
X35214285Y-11502438D02*
X35261904Y-11550057D01*
X35261904Y-11550057D02*
X35309523Y-11645295D01*
X35309523Y-11645295D02*
X35357142Y-11835771D01*
X35357142Y-11835771D02*
X35357142Y-12073866D01*
X35357142Y-12073866D02*
X35309523Y-12264342D01*
X35309523Y-12264342D02*
X35261904Y-12359580D01*
X35261904Y-12359580D02*
X35214285Y-12407200D01*
X35214285Y-12407200D02*
X35119047Y-12454819D01*
X35119047Y-12454819D02*
X35023809Y-12454819D01*
X35023809Y-12454819D02*
X34928571Y-12407200D01*
X34928571Y-12407200D02*
X34880952Y-12359580D01*
X34880952Y-12359580D02*
X34833333Y-12264342D01*
X34833333Y-12264342D02*
X34785714Y-12073866D01*
X34785714Y-12073866D02*
X34785714Y-11835771D01*
X34785714Y-11835771D02*
X34833333Y-11645295D01*
X34833333Y-11645295D02*
X34880952Y-11550057D01*
X34880952Y-11550057D02*
X34928571Y-11502438D01*
X34928571Y-11502438D02*
X35023809Y-11454819D01*
X35785714Y-12454819D02*
X35785714Y-11454819D01*
X35880952Y-12073866D02*
X36166666Y-12454819D01*
X36166666Y-11788152D02*
X35785714Y-12169104D01*
X53928571Y-34454819D02*
X53357143Y-34454819D01*
X53642857Y-34454819D02*
X53642857Y-33454819D01*
X53642857Y-33454819D02*
X53547619Y-33597676D01*
X53547619Y-33597676D02*
X53452381Y-33692914D01*
X53452381Y-33692914D02*
X53357143Y-33740533D01*
X54309524Y-33550057D02*
X54357143Y-33502438D01*
X54357143Y-33502438D02*
X54452381Y-33454819D01*
X54452381Y-33454819D02*
X54690476Y-33454819D01*
X54690476Y-33454819D02*
X54785714Y-33502438D01*
X54785714Y-33502438D02*
X54833333Y-33550057D01*
X54833333Y-33550057D02*
X54880952Y-33645295D01*
X54880952Y-33645295D02*
X54880952Y-33740533D01*
X54880952Y-33740533D02*
X54833333Y-33883390D01*
X54833333Y-33883390D02*
X54261905Y-34454819D01*
X54261905Y-34454819D02*
X54880952Y-34454819D01*
X55500000Y-33454819D02*
X55595238Y-33454819D01*
X55595238Y-33454819D02*
X55690476Y-33502438D01*
X55690476Y-33502438D02*
X55738095Y-33550057D01*
X55738095Y-33550057D02*
X55785714Y-33645295D01*
X55785714Y-33645295D02*
X55833333Y-33835771D01*
X55833333Y-33835771D02*
X55833333Y-34073866D01*
X55833333Y-34073866D02*
X55785714Y-34264342D01*
X55785714Y-34264342D02*
X55738095Y-34359580D01*
X55738095Y-34359580D02*
X55690476Y-34407200D01*
X55690476Y-34407200D02*
X55595238Y-34454819D01*
X55595238Y-34454819D02*
X55500000Y-34454819D01*
X55500000Y-34454819D02*
X55404762Y-34407200D01*
X55404762Y-34407200D02*
X55357143Y-34359580D01*
X55357143Y-34359580D02*
X55309524Y-34264342D01*
X55309524Y-34264342D02*
X55261905Y-34073866D01*
X55261905Y-34073866D02*
X55261905Y-33835771D01*
X55261905Y-33835771D02*
X55309524Y-33645295D01*
X55309524Y-33645295D02*
X55357143Y-33550057D01*
X55357143Y-33550057D02*
X55404762Y-33502438D01*
X55404762Y-33502438D02*
X55500000Y-33454819D01*
X56833333Y-34454819D02*
X56500000Y-33978628D01*
X56261905Y-34454819D02*
X56261905Y-33454819D01*
X56261905Y-33454819D02*
X56642857Y-33454819D01*
X56642857Y-33454819D02*
X56738095Y-33502438D01*
X56738095Y-33502438D02*
X56785714Y-33550057D01*
X56785714Y-33550057D02*
X56833333Y-33645295D01*
X56833333Y-33645295D02*
X56833333Y-33788152D01*
X56833333Y-33788152D02*
X56785714Y-33883390D01*
X56785714Y-33883390D02*
X56738095Y-33931009D01*
X56738095Y-33931009D02*
X56642857Y-33978628D01*
X56642857Y-33978628D02*
X56261905Y-33978628D01*
X58023810Y-34454819D02*
X58023810Y-33454819D01*
X58023810Y-33454819D02*
X58261905Y-33454819D01*
X58261905Y-33454819D02*
X58404762Y-33502438D01*
X58404762Y-33502438D02*
X58500000Y-33597676D01*
X58500000Y-33597676D02*
X58547619Y-33692914D01*
X58547619Y-33692914D02*
X58595238Y-33883390D01*
X58595238Y-33883390D02*
X58595238Y-34026247D01*
X58595238Y-34026247D02*
X58547619Y-34216723D01*
X58547619Y-34216723D02*
X58500000Y-34311961D01*
X58500000Y-34311961D02*
X58404762Y-34407200D01*
X58404762Y-34407200D02*
X58261905Y-34454819D01*
X58261905Y-34454819D02*
X58023810Y-34454819D01*
X59023810Y-34454819D02*
X59023810Y-33454819D01*
X59023810Y-33454819D02*
X59595238Y-34454819D01*
X59595238Y-34454819D02*
X59595238Y-33454819D01*
X60071429Y-34454819D02*
X60071429Y-33454819D01*
X60071429Y-33454819D02*
X60452381Y-33454819D01*
X60452381Y-33454819D02*
X60547619Y-33502438D01*
X60547619Y-33502438D02*
X60595238Y-33550057D01*
X60595238Y-33550057D02*
X60642857Y-33645295D01*
X60642857Y-33645295D02*
X60642857Y-33788152D01*
X60642857Y-33788152D02*
X60595238Y-33883390D01*
X60595238Y-33883390D02*
X60547619Y-33931009D01*
X60547619Y-33931009D02*
X60452381Y-33978628D01*
X60452381Y-33978628D02*
X60071429Y-33978628D01*
X53214286Y-36454819D02*
X53833333Y-36454819D01*
X53833333Y-36454819D02*
X53500000Y-36835771D01*
X53500000Y-36835771D02*
X53642857Y-36835771D01*
X53642857Y-36835771D02*
X53738095Y-36883390D01*
X53738095Y-36883390D02*
X53785714Y-36931009D01*
X53785714Y-36931009D02*
X53833333Y-37026247D01*
X53833333Y-37026247D02*
X53833333Y-37264342D01*
X53833333Y-37264342D02*
X53785714Y-37359580D01*
X53785714Y-37359580D02*
X53738095Y-37407200D01*
X53738095Y-37407200D02*
X53642857Y-37454819D01*
X53642857Y-37454819D02*
X53357143Y-37454819D01*
X53357143Y-37454819D02*
X53261905Y-37407200D01*
X53261905Y-37407200D02*
X53214286Y-37359580D01*
X54166667Y-36454819D02*
X54785714Y-36454819D01*
X54785714Y-36454819D02*
X54452381Y-36835771D01*
X54452381Y-36835771D02*
X54595238Y-36835771D01*
X54595238Y-36835771D02*
X54690476Y-36883390D01*
X54690476Y-36883390D02*
X54738095Y-36931009D01*
X54738095Y-36931009D02*
X54785714Y-37026247D01*
X54785714Y-37026247D02*
X54785714Y-37264342D01*
X54785714Y-37264342D02*
X54738095Y-37359580D01*
X54738095Y-37359580D02*
X54690476Y-37407200D01*
X54690476Y-37407200D02*
X54595238Y-37454819D01*
X54595238Y-37454819D02*
X54309524Y-37454819D01*
X54309524Y-37454819D02*
X54214286Y-37407200D01*
X54214286Y-37407200D02*
X54166667Y-37359580D01*
X55404762Y-36454819D02*
X55500000Y-36454819D01*
X55500000Y-36454819D02*
X55595238Y-36502438D01*
X55595238Y-36502438D02*
X55642857Y-36550057D01*
X55642857Y-36550057D02*
X55690476Y-36645295D01*
X55690476Y-36645295D02*
X55738095Y-36835771D01*
X55738095Y-36835771D02*
X55738095Y-37073866D01*
X55738095Y-37073866D02*
X55690476Y-37264342D01*
X55690476Y-37264342D02*
X55642857Y-37359580D01*
X55642857Y-37359580D02*
X55595238Y-37407200D01*
X55595238Y-37407200D02*
X55500000Y-37454819D01*
X55500000Y-37454819D02*
X55404762Y-37454819D01*
X55404762Y-37454819D02*
X55309524Y-37407200D01*
X55309524Y-37407200D02*
X55261905Y-37359580D01*
X55261905Y-37359580D02*
X55214286Y-37264342D01*
X55214286Y-37264342D02*
X55166667Y-37073866D01*
X55166667Y-37073866D02*
X55166667Y-36835771D01*
X55166667Y-36835771D02*
X55214286Y-36645295D01*
X55214286Y-36645295D02*
X55261905Y-36550057D01*
X55261905Y-36550057D02*
X55309524Y-36502438D01*
X55309524Y-36502438D02*
X55404762Y-36454819D01*
X56738095Y-37454819D02*
X56404762Y-36978628D01*
X56166667Y-37454819D02*
X56166667Y-36454819D01*
X56166667Y-36454819D02*
X56547619Y-36454819D01*
X56547619Y-36454819D02*
X56642857Y-36502438D01*
X56642857Y-36502438D02*
X56690476Y-36550057D01*
X56690476Y-36550057D02*
X56738095Y-36645295D01*
X56738095Y-36645295D02*
X56738095Y-36788152D01*
X56738095Y-36788152D02*
X56690476Y-36883390D01*
X56690476Y-36883390D02*
X56642857Y-36931009D01*
X56642857Y-36931009D02*
X56547619Y-36978628D01*
X56547619Y-36978628D02*
X56166667Y-36978628D01*
X54357142Y-41454819D02*
X53880952Y-41454819D01*
X53880952Y-41454819D02*
X53880952Y-40454819D01*
X54690476Y-40931009D02*
X55023809Y-40931009D01*
X55166666Y-41454819D02*
X54690476Y-41454819D01*
X54690476Y-41454819D02*
X54690476Y-40454819D01*
X54690476Y-40454819D02*
X55166666Y-40454819D01*
X55595238Y-41454819D02*
X55595238Y-40454819D01*
X55595238Y-40454819D02*
X55833333Y-40454819D01*
X55833333Y-40454819D02*
X55976190Y-40502438D01*
X55976190Y-40502438D02*
X56071428Y-40597676D01*
X56071428Y-40597676D02*
X56119047Y-40692914D01*
X56119047Y-40692914D02*
X56166666Y-40883390D01*
X56166666Y-40883390D02*
X56166666Y-41026247D01*
X56166666Y-41026247D02*
X56119047Y-41216723D01*
X56119047Y-41216723D02*
X56071428Y-41311961D01*
X56071428Y-41311961D02*
X55976190Y-41407200D01*
X55976190Y-41407200D02*
X55833333Y-41454819D01*
X55833333Y-41454819D02*
X55595238Y-41454819D01*
X31547618Y-42454819D02*
X31214285Y-41978628D01*
X30976190Y-42454819D02*
X30976190Y-41454819D01*
X30976190Y-41454819D02*
X31357142Y-41454819D01*
X31357142Y-41454819D02*
X31452380Y-41502438D01*
X31452380Y-41502438D02*
X31499999Y-41550057D01*
X31499999Y-41550057D02*
X31547618Y-41645295D01*
X31547618Y-41645295D02*
X31547618Y-41788152D01*
X31547618Y-41788152D02*
X31499999Y-41883390D01*
X31499999Y-41883390D02*
X31452380Y-41931009D01*
X31452380Y-41931009D02*
X31357142Y-41978628D01*
X31357142Y-41978628D02*
X30976190Y-41978628D01*
X31976190Y-41931009D02*
X32309523Y-41931009D01*
X32452380Y-42454819D02*
X31976190Y-42454819D01*
X31976190Y-42454819D02*
X31976190Y-41454819D01*
X31976190Y-41454819D02*
X32452380Y-41454819D01*
X32833333Y-42407200D02*
X32976190Y-42454819D01*
X32976190Y-42454819D02*
X33214285Y-42454819D01*
X33214285Y-42454819D02*
X33309523Y-42407200D01*
X33309523Y-42407200D02*
X33357142Y-42359580D01*
X33357142Y-42359580D02*
X33404761Y-42264342D01*
X33404761Y-42264342D02*
X33404761Y-42169104D01*
X33404761Y-42169104D02*
X33357142Y-42073866D01*
X33357142Y-42073866D02*
X33309523Y-42026247D01*
X33309523Y-42026247D02*
X33214285Y-41978628D01*
X33214285Y-41978628D02*
X33023809Y-41931009D01*
X33023809Y-41931009D02*
X32928571Y-41883390D01*
X32928571Y-41883390D02*
X32880952Y-41835771D01*
X32880952Y-41835771D02*
X32833333Y-41740533D01*
X32833333Y-41740533D02*
X32833333Y-41645295D01*
X32833333Y-41645295D02*
X32880952Y-41550057D01*
X32880952Y-41550057D02*
X32928571Y-41502438D01*
X32928571Y-41502438D02*
X33023809Y-41454819D01*
X33023809Y-41454819D02*
X33261904Y-41454819D01*
X33261904Y-41454819D02*
X33404761Y-41502438D01*
X33833333Y-41931009D02*
X34166666Y-41931009D01*
X34309523Y-42454819D02*
X33833333Y-42454819D01*
X33833333Y-42454819D02*
X33833333Y-41454819D01*
X33833333Y-41454819D02*
X34309523Y-41454819D01*
X34595238Y-41454819D02*
X35166666Y-41454819D01*
X34880952Y-42454819D02*
X34880952Y-41454819D01*
X38642857Y-41931009D02*
X38785714Y-41978628D01*
X38785714Y-41978628D02*
X38833333Y-42026247D01*
X38833333Y-42026247D02*
X38880952Y-42121485D01*
X38880952Y-42121485D02*
X38880952Y-42264342D01*
X38880952Y-42264342D02*
X38833333Y-42359580D01*
X38833333Y-42359580D02*
X38785714Y-42407200D01*
X38785714Y-42407200D02*
X38690476Y-42454819D01*
X38690476Y-42454819D02*
X38309524Y-42454819D01*
X38309524Y-42454819D02*
X38309524Y-41454819D01*
X38309524Y-41454819D02*
X38642857Y-41454819D01*
X38642857Y-41454819D02*
X38738095Y-41502438D01*
X38738095Y-41502438D02*
X38785714Y-41550057D01*
X38785714Y-41550057D02*
X38833333Y-41645295D01*
X38833333Y-41645295D02*
X38833333Y-41740533D01*
X38833333Y-41740533D02*
X38785714Y-41835771D01*
X38785714Y-41835771D02*
X38738095Y-41883390D01*
X38738095Y-41883390D02*
X38642857Y-41931009D01*
X38642857Y-41931009D02*
X38309524Y-41931009D01*
X39500000Y-41454819D02*
X39690476Y-41454819D01*
X39690476Y-41454819D02*
X39785714Y-41502438D01*
X39785714Y-41502438D02*
X39880952Y-41597676D01*
X39880952Y-41597676D02*
X39928571Y-41788152D01*
X39928571Y-41788152D02*
X39928571Y-42121485D01*
X39928571Y-42121485D02*
X39880952Y-42311961D01*
X39880952Y-42311961D02*
X39785714Y-42407200D01*
X39785714Y-42407200D02*
X39690476Y-42454819D01*
X39690476Y-42454819D02*
X39500000Y-42454819D01*
X39500000Y-42454819D02*
X39404762Y-42407200D01*
X39404762Y-42407200D02*
X39309524Y-42311961D01*
X39309524Y-42311961D02*
X39261905Y-42121485D01*
X39261905Y-42121485D02*
X39261905Y-41788152D01*
X39261905Y-41788152D02*
X39309524Y-41597676D01*
X39309524Y-41597676D02*
X39404762Y-41502438D01*
X39404762Y-41502438D02*
X39500000Y-41454819D01*
X40547619Y-41454819D02*
X40738095Y-41454819D01*
X40738095Y-41454819D02*
X40833333Y-41502438D01*
X40833333Y-41502438D02*
X40928571Y-41597676D01*
X40928571Y-41597676D02*
X40976190Y-41788152D01*
X40976190Y-41788152D02*
X40976190Y-42121485D01*
X40976190Y-42121485D02*
X40928571Y-42311961D01*
X40928571Y-42311961D02*
X40833333Y-42407200D01*
X40833333Y-42407200D02*
X40738095Y-42454819D01*
X40738095Y-42454819D02*
X40547619Y-42454819D01*
X40547619Y-42454819D02*
X40452381Y-42407200D01*
X40452381Y-42407200D02*
X40357143Y-42311961D01*
X40357143Y-42311961D02*
X40309524Y-42121485D01*
X40309524Y-42121485D02*
X40309524Y-41788152D01*
X40309524Y-41788152D02*
X40357143Y-41597676D01*
X40357143Y-41597676D02*
X40452381Y-41502438D01*
X40452381Y-41502438D02*
X40547619Y-41454819D01*
X41261905Y-41454819D02*
X41833333Y-41454819D01*
X41547619Y-42454819D02*
X41547619Y-41454819D01*
X3214285Y-13454819D02*
X2738095Y-13454819D01*
X2738095Y-13454819D02*
X2690476Y-13931009D01*
X2690476Y-13931009D02*
X2738095Y-13883390D01*
X2738095Y-13883390D02*
X2833333Y-13835771D01*
X2833333Y-13835771D02*
X3071428Y-13835771D01*
X3071428Y-13835771D02*
X3166666Y-13883390D01*
X3166666Y-13883390D02*
X3214285Y-13931009D01*
X3214285Y-13931009D02*
X3261904Y-14026247D01*
X3261904Y-14026247D02*
X3261904Y-14264342D01*
X3261904Y-14264342D02*
X3214285Y-14359580D01*
X3214285Y-14359580D02*
X3166666Y-14407200D01*
X3166666Y-14407200D02*
X3071428Y-14454819D01*
X3071428Y-14454819D02*
X2833333Y-14454819D01*
X2833333Y-14454819D02*
X2738095Y-14407200D01*
X2738095Y-14407200D02*
X2690476Y-14359580D01*
X3547619Y-13454819D02*
X3880952Y-14454819D01*
X3880952Y-14454819D02*
X4214285Y-13454819D01*
X5309524Y-14454819D02*
X5309524Y-13454819D01*
X5309524Y-13454819D02*
X5690476Y-13454819D01*
X5690476Y-13454819D02*
X5785714Y-13502438D01*
X5785714Y-13502438D02*
X5833333Y-13550057D01*
X5833333Y-13550057D02*
X5880952Y-13645295D01*
X5880952Y-13645295D02*
X5880952Y-13788152D01*
X5880952Y-13788152D02*
X5833333Y-13883390D01*
X5833333Y-13883390D02*
X5785714Y-13931009D01*
X5785714Y-13931009D02*
X5690476Y-13978628D01*
X5690476Y-13978628D02*
X5309524Y-13978628D01*
X6452381Y-14454819D02*
X6357143Y-14407200D01*
X6357143Y-14407200D02*
X6309524Y-14359580D01*
X6309524Y-14359580D02*
X6261905Y-14264342D01*
X6261905Y-14264342D02*
X6261905Y-13978628D01*
X6261905Y-13978628D02*
X6309524Y-13883390D01*
X6309524Y-13883390D02*
X6357143Y-13835771D01*
X6357143Y-13835771D02*
X6452381Y-13788152D01*
X6452381Y-13788152D02*
X6595238Y-13788152D01*
X6595238Y-13788152D02*
X6690476Y-13835771D01*
X6690476Y-13835771D02*
X6738095Y-13883390D01*
X6738095Y-13883390D02*
X6785714Y-13978628D01*
X6785714Y-13978628D02*
X6785714Y-14264342D01*
X6785714Y-14264342D02*
X6738095Y-14359580D01*
X6738095Y-14359580D02*
X6690476Y-14407200D01*
X6690476Y-14407200D02*
X6595238Y-14454819D01*
X6595238Y-14454819D02*
X6452381Y-14454819D01*
X7119048Y-13788152D02*
X7309524Y-14454819D01*
X7309524Y-14454819D02*
X7500000Y-13978628D01*
X7500000Y-13978628D02*
X7690476Y-14454819D01*
X7690476Y-14454819D02*
X7880952Y-13788152D01*
X8642857Y-14407200D02*
X8547619Y-14454819D01*
X8547619Y-14454819D02*
X8357143Y-14454819D01*
X8357143Y-14454819D02*
X8261905Y-14407200D01*
X8261905Y-14407200D02*
X8214286Y-14311961D01*
X8214286Y-14311961D02*
X8214286Y-13931009D01*
X8214286Y-13931009D02*
X8261905Y-13835771D01*
X8261905Y-13835771D02*
X8357143Y-13788152D01*
X8357143Y-13788152D02*
X8547619Y-13788152D01*
X8547619Y-13788152D02*
X8642857Y-13835771D01*
X8642857Y-13835771D02*
X8690476Y-13931009D01*
X8690476Y-13931009D02*
X8690476Y-14026247D01*
X8690476Y-14026247D02*
X8214286Y-14121485D01*
X9119048Y-14454819D02*
X9119048Y-13788152D01*
X9119048Y-13978628D02*
X9166667Y-13883390D01*
X9166667Y-13883390D02*
X9214286Y-13835771D01*
X9214286Y-13835771D02*
X9309524Y-13788152D01*
X9309524Y-13788152D02*
X9404762Y-13788152D01*
X56571428Y-26954819D02*
X56238095Y-26478628D01*
X56000000Y-26954819D02*
X56000000Y-25954819D01*
X56000000Y-25954819D02*
X56380952Y-25954819D01*
X56380952Y-25954819D02*
X56476190Y-26002438D01*
X56476190Y-26002438D02*
X56523809Y-26050057D01*
X56523809Y-26050057D02*
X56571428Y-26145295D01*
X56571428Y-26145295D02*
X56571428Y-26288152D01*
X56571428Y-26288152D02*
X56523809Y-26383390D01*
X56523809Y-26383390D02*
X56476190Y-26431009D01*
X56476190Y-26431009D02*
X56380952Y-26478628D01*
X56380952Y-26478628D02*
X56000000Y-26478628D01*
X56952381Y-26907200D02*
X57095238Y-26954819D01*
X57095238Y-26954819D02*
X57333333Y-26954819D01*
X57333333Y-26954819D02*
X57428571Y-26907200D01*
X57428571Y-26907200D02*
X57476190Y-26859580D01*
X57476190Y-26859580D02*
X57523809Y-26764342D01*
X57523809Y-26764342D02*
X57523809Y-26669104D01*
X57523809Y-26669104D02*
X57476190Y-26573866D01*
X57476190Y-26573866D02*
X57428571Y-26526247D01*
X57428571Y-26526247D02*
X57333333Y-26478628D01*
X57333333Y-26478628D02*
X57142857Y-26431009D01*
X57142857Y-26431009D02*
X57047619Y-26383390D01*
X57047619Y-26383390D02*
X57000000Y-26335771D01*
X57000000Y-26335771D02*
X56952381Y-26240533D01*
X56952381Y-26240533D02*
X56952381Y-26145295D01*
X56952381Y-26145295D02*
X57000000Y-26050057D01*
X57000000Y-26050057D02*
X57047619Y-26002438D01*
X57047619Y-26002438D02*
X57142857Y-25954819D01*
X57142857Y-25954819D02*
X57380952Y-25954819D01*
X57380952Y-25954819D02*
X57523809Y-26002438D01*
X58380952Y-26288152D02*
X58380952Y-26954819D01*
X58142857Y-25907200D02*
X57904762Y-26621485D01*
X57904762Y-26621485D02*
X58523809Y-26621485D01*
X59047619Y-26383390D02*
X58952381Y-26335771D01*
X58952381Y-26335771D02*
X58904762Y-26288152D01*
X58904762Y-26288152D02*
X58857143Y-26192914D01*
X58857143Y-26192914D02*
X58857143Y-26145295D01*
X58857143Y-26145295D02*
X58904762Y-26050057D01*
X58904762Y-26050057D02*
X58952381Y-26002438D01*
X58952381Y-26002438D02*
X59047619Y-25954819D01*
X59047619Y-25954819D02*
X59238095Y-25954819D01*
X59238095Y-25954819D02*
X59333333Y-26002438D01*
X59333333Y-26002438D02*
X59380952Y-26050057D01*
X59380952Y-26050057D02*
X59428571Y-26145295D01*
X59428571Y-26145295D02*
X59428571Y-26192914D01*
X59428571Y-26192914D02*
X59380952Y-26288152D01*
X59380952Y-26288152D02*
X59333333Y-26335771D01*
X59333333Y-26335771D02*
X59238095Y-26383390D01*
X59238095Y-26383390D02*
X59047619Y-26383390D01*
X59047619Y-26383390D02*
X58952381Y-26431009D01*
X58952381Y-26431009D02*
X58904762Y-26478628D01*
X58904762Y-26478628D02*
X58857143Y-26573866D01*
X58857143Y-26573866D02*
X58857143Y-26764342D01*
X58857143Y-26764342D02*
X58904762Y-26859580D01*
X58904762Y-26859580D02*
X58952381Y-26907200D01*
X58952381Y-26907200D02*
X59047619Y-26954819D01*
X59047619Y-26954819D02*
X59238095Y-26954819D01*
X59238095Y-26954819D02*
X59333333Y-26907200D01*
X59333333Y-26907200D02*
X59380952Y-26859580D01*
X59380952Y-26859580D02*
X59428571Y-26764342D01*
X59428571Y-26764342D02*
X59428571Y-26573866D01*
X59428571Y-26573866D02*
X59380952Y-26478628D01*
X59380952Y-26478628D02*
X59333333Y-26431009D01*
X59333333Y-26431009D02*
X59238095Y-26383390D01*
X60333333Y-25954819D02*
X59857143Y-25954819D01*
X59857143Y-25954819D02*
X59809524Y-26431009D01*
X59809524Y-26431009D02*
X59857143Y-26383390D01*
X59857143Y-26383390D02*
X59952381Y-26335771D01*
X59952381Y-26335771D02*
X60190476Y-26335771D01*
X60190476Y-26335771D02*
X60285714Y-26383390D01*
X60285714Y-26383390D02*
X60333333Y-26431009D01*
X60333333Y-26431009D02*
X60380952Y-26526247D01*
X60380952Y-26526247D02*
X60380952Y-26764342D01*
X60380952Y-26764342D02*
X60333333Y-26859580D01*
X60333333Y-26859580D02*
X60285714Y-26907200D01*
X60285714Y-26907200D02*
X60190476Y-26954819D01*
X60190476Y-26954819D02*
X59952381Y-26954819D01*
X59952381Y-26954819D02*
X59857143Y-26907200D01*
X59857143Y-26907200D02*
X59809524Y-26859580D01*
X61523810Y-26669104D02*
X62000000Y-26669104D01*
X61428572Y-26954819D02*
X61761905Y-25954819D01*
X61761905Y-25954819D02*
X62095238Y-26954819D01*
X63142857Y-25907200D02*
X62285715Y-27192914D01*
X63809524Y-26431009D02*
X63952381Y-26478628D01*
X63952381Y-26478628D02*
X64000000Y-26526247D01*
X64000000Y-26526247D02*
X64047619Y-26621485D01*
X64047619Y-26621485D02*
X64047619Y-26764342D01*
X64047619Y-26764342D02*
X64000000Y-26859580D01*
X64000000Y-26859580D02*
X63952381Y-26907200D01*
X63952381Y-26907200D02*
X63857143Y-26954819D01*
X63857143Y-26954819D02*
X63476191Y-26954819D01*
X63476191Y-26954819D02*
X63476191Y-25954819D01*
X63476191Y-25954819D02*
X63809524Y-25954819D01*
X63809524Y-25954819D02*
X63904762Y-26002438D01*
X63904762Y-26002438D02*
X63952381Y-26050057D01*
X63952381Y-26050057D02*
X64000000Y-26145295D01*
X64000000Y-26145295D02*
X64000000Y-26240533D01*
X64000000Y-26240533D02*
X63952381Y-26335771D01*
X63952381Y-26335771D02*
X63904762Y-26383390D01*
X63904762Y-26383390D02*
X63809524Y-26431009D01*
X63809524Y-26431009D02*
X63476191Y-26431009D01*
%TO.C,U1*%
D11*
X13000000Y-15900000D02*
X31000000Y-15900000D01*
X31000000Y-29100000D01*
X13000000Y-29100000D01*
X13000000Y-15900000D01*
%TO.C,U2*%
X44000000Y-19700000D02*
X48000000Y-19700000D01*
X48000000Y-25300000D01*
X44000000Y-25300000D01*
X44000000Y-19700000D01*
%TD*%
M02*
