%TF.GenerationSoftware,KiCad,Pcbnew,10.0.0*%
%TF.CreationDate,2026-04-05T08:07:09+02:00*%
%TF.ProjectId,schneid-mr12-adapter,7363686e-6569-4642-9d6d-7231322d6164,1.0*%
%TF.SameCoordinates,Original*%
%TF.FileFunction,Soldermask,Top*%
%TF.FilePolarity,Negative*%
%FSLAX46Y46*%
G04 Gerber Fmt 4.6, Leading zero omitted, Abs format (unit mm)*
G04 Created by KiCad (PCBNEW 10.0.0) date 2026-04-05 08:07:09*
%MOMM*%
%LPD*%
G01*
G04 APERTURE LIST*
G04 Aperture macros list*
%AMRoundRect*
0 Rectangle with rounded corners*
0 $1 Rounding radius*
0 $2 $3 $4 $5 $6 $7 $8 $9 X,Y pos of 4 corners*
0 Add a 4 corners polygon primitive as box body*
4,1,4,$2,$3,$4,$5,$6,$7,$8,$9,$2,$3,0*
0 Add four circle primitives for the rounded corners*
1,1,$1+$1,$2,$3*
1,1,$1+$1,$4,$5*
1,1,$1+$1,$6,$7*
1,1,$1+$1,$8,$9*
0 Add four rect primitives between the rounded corners*
20,1,$1+$1,$2,$3,$4,$5,0*
20,1,$1+$1,$4,$5,$6,$7,0*
20,1,$1+$1,$6,$7,$8,$9,0*
20,1,$1+$1,$8,$9,$2,$3,0*%
G04 Aperture macros list end*
%ADD10RoundRect,0.050000X-1.200000X-0.500000X1.200000X-0.500000X1.200000X0.500000X-1.200000X0.500000X0*%
%ADD11RoundRect,0.050000X1.200000X-0.500000X1.200000X0.500000X-1.200000X0.500000X-1.200000X-0.500000X0*%
%ADD12RoundRect,0.050000X-0.775000X-0.300000X0.775000X-0.300000X0.775000X0.300000X-0.775000X0.300000X0*%
%ADD13RoundRect,0.050000X-0.800000X-0.500000X0.800000X-0.500000X0.800000X0.500000X-0.800000X0.500000X0*%
%ADD14RoundRect,0.050000X-1.750000X-1.150000X1.750000X-1.150000X1.750000X1.150000X-1.750000X1.150000X0*%
%ADD15RoundRect,0.050000X-0.450000X-0.600000X0.450000X-0.600000X0.450000X0.600000X-0.450000X0.600000X0*%
%ADD16RoundRect,0.050000X-0.800000X-0.900000X0.800000X-0.900000X0.800000X0.900000X-0.800000X0.900000X0*%
%ADD17RoundRect,0.050000X-0.500000X-0.750000X0.500000X-0.750000X0.500000X0.750000X-0.500000X0.750000X0*%
%ADD18C,2.500000*%
%ADD19C,2.200000*%
G04 APERTURE END LIST*
D10*
%TO.C,U1*%
X12700000Y-17000000D03*
X12700000Y-18100000D03*
X12700000Y-19200000D03*
X12700000Y-20300000D03*
X12700000Y-21400000D03*
X12700000Y-22500000D03*
X12700000Y-23600000D03*
X12700000Y-24700000D03*
X12700000Y-25800000D03*
X12700000Y-26900000D03*
X12700000Y-28000000D03*
X31300000Y-17000000D03*
X31300000Y-18100000D03*
X31300000Y-19200000D03*
X31300000Y-20300000D03*
X31300000Y-21400000D03*
X31300000Y-22500000D03*
X31300000Y-23600000D03*
X31300000Y-24700000D03*
X31300000Y-25800000D03*
X31300000Y-26900000D03*
X31300000Y-28000000D03*
D11*
X13600000Y-29400000D03*
X14800000Y-29400000D03*
X16000000Y-29400000D03*
X17200000Y-29400000D03*
X18400000Y-29400000D03*
X19600000Y-29400000D03*
X20800000Y-29400000D03*
X22000000Y-29400000D03*
X23200000Y-29400000D03*
X24400000Y-29400000D03*
X25600000Y-29400000D03*
X26800000Y-29400000D03*
X28000000Y-29400000D03*
X29200000Y-29400000D03*
X30400000Y-29400000D03*
X13600000Y-15600000D03*
X14800000Y-15600000D03*
X16000000Y-15600000D03*
X17200000Y-15600000D03*
X18400000Y-15600000D03*
X19600000Y-15600000D03*
X20800000Y-15600000D03*
X22000000Y-15600000D03*
X23200000Y-15600000D03*
X24400000Y-15600000D03*
X25600000Y-15600000D03*
X26800000Y-15600000D03*
X28000000Y-15600000D03*
X29200000Y-15600000D03*
X30400000Y-15600000D03*
%TD*%
D12*
%TO.C,U2*%
X43300000Y-20595000D03*
X43300000Y-21865000D03*
X43300000Y-23135000D03*
X43300000Y-24405000D03*
X48700000Y-24405000D03*
X48700000Y-23135000D03*
X48700000Y-21865000D03*
X48700000Y-20595000D03*
%TD*%
D13*
%TO.C,U3*%
X5700000Y-32950000D03*
X8000000Y-32950000D03*
X10300000Y-32950000D03*
D14*
X8000000Y-28900000D03*
%TD*%
D15*
%TO.C,C1*%
X45037500Y-15000000D03*
X46962500Y-15000000D03*
%TD*%
%TO.C,C2*%
X21037500Y-10000000D03*
X22962500Y-10000000D03*
%TD*%
D16*
%TO.C,C3*%
X12500000Y-10000000D03*
X15500000Y-10000000D03*
%TD*%
%TO.C,C4*%
X6500000Y-38000000D03*
X9500000Y-38000000D03*
%TD*%
D15*
%TO.C,R1*%
X29037500Y-8000000D03*
X30962500Y-8000000D03*
%TD*%
%TO.C,R2*%
X34037500Y-8000000D03*
X35962500Y-8000000D03*
%TD*%
%TO.C,R3*%
X56037500Y-30000000D03*
X57962500Y-30000000D03*
%TD*%
%TO.C,R4*%
X54037500Y-33000000D03*
X55962500Y-33000000D03*
%TD*%
%TO.C,D1*%
X54037500Y-37000000D03*
X55962500Y-37000000D03*
%TD*%
D17*
%TO.C,SW1*%
X31100000Y-36500000D03*
X31100000Y-39500000D03*
X34900000Y-36500000D03*
X34900000Y-39500000D03*
%TD*%
%TO.C,SW2*%
X38100000Y-36500000D03*
X38100000Y-39500000D03*
X41900000Y-36500000D03*
X41900000Y-39500000D03*
%TD*%
D18*
%TO.C,J1*%
X3500000Y-10000000D03*
X8500000Y-10000000D03*
%TD*%
D19*
%TO.C,J2*%
X60000000Y-20750000D03*
X60000000Y-24250000D03*
%TD*%
M02*
