<svg xmlns="http://www.w3.org/2000/svg" viewBox="0 0 1050 575"
     font-family="'Segoe UI',Arial,sans-serif" font-size="12">
  <defs>
    <linearGradient id="bg" x1="0%" y1="0%" x2="0%" y2="100%">
      <stop offset="0%"   stop-color="#1a1a2e"/>
      <stop offset="100%" stop-color="#16213e"/>
    </linearGradient>
    <linearGradient id="card" x1="0%" y1="0%" x2="0%" y2="100%">
      <stop offset="0%"   stop-color="#1f2940"/>
      <stop offset="100%" stop-color="#172033"/>
    </linearGradient>
    <linearGradient id="hbar" x1="0%" y1="0%" x2="100%" y2="0%">
      <stop offset="0%"   stop-color="#e63946"/>
      <stop offset="50%"  stop-color="#ff6b35"/>
      <stop offset="100%" stop-color="#e63946"/>
    </linearGradient>
    <filter id="glow">
      <feGaussianBlur stdDeviation="3" result="blur"/>
      <feMerge><feMergeNode in="blur"/><feMergeNode in="SourceGraphic"/></feMerge>
    </filter>
    <filter id="shadow">
      <feDropShadow dx="2" dy="3" stdDeviation="4" flood-color="#000000" flood-opacity="0.4"/>
    </filter>
    <filter id="innerShadow">
      <feDropShadow dx="0" dy="1" stdDeviation="2" flood-color="#000000" flood-opacity="0.3"/>
    </filter>
    <style>
      @keyframes flowR { from { stroke-dashoffset: 24; }  to { stroke-dashoffset:   0; } }
      @keyframes flowL { from { stroke-dashoffset:  0; }  to { stroke-dashoffset: -24; } }
      @keyframes pulse { 0%,100% { opacity: .55; } 50% { opacity: 1; } }
      .fr { animation: flowR 1s linear      infinite; }
      .fl { animation: flowL 1s linear      infinite; }
      .pu { animation: pulse 2s ease-in-out infinite; }
    </style>
  </defs>

  <!-- ══════════════════════════ BACKGROUND ══════════════════════════════════ -->
  <rect width="1050" height="575" fill="url(#bg)" rx="12"/>

  <!-- ══════════════════════════ HEADER (y 0–56) ═════════════════════════════ -->
  <rect x="0"  y="0"  width="1050" height="56" fill="#0d1321" rx="12"/>
  <rect x="0"  y="28" width="1050" height="28" fill="#0d1321"/>
  <rect x="15" y="16" width="6"    height="26" rx="3" fill="url(#hbar)"/>
  <text x="30" y="37" font-size="18" font-weight="bold" fill="#e0e0e0">Fernwärme Übergabestation</text>
  <!-- Outdoor temp in header -->
  <text x="525" y="21" text-anchor="middle" font-size="9"  fill="#546e7a" letter-spacing="1">AUSSENTEMPERATUR</text>
  <text x="525" y="46" text-anchor="middle" font-size="22" font-weight="bold" fill="#48cae4" filter="url(#glow)">6.9°</text>
  <!-- ÜST status -->
  <circle cx="862" cy="28" r="5" fill="#4caf50" class="pu"/>
  <text x="874" y="33" font-size="10" fill="#a5d6a7">ÜST: EIN</text>
  <text x="1038" y="20" text-anchor="end" font-size="9" fill="#546e7a">schneid-mr12.local</text>
  <text x="1038" y="34" text-anchor="end" font-size="8" fill="#37474f">Modbus 0x01 | 19200 Bd</text>
  <text x="1038" y="49" text-anchor="end" font-size="8" fill="#263238">ESP32-C3</text>

  <!-- ═══════════════════════ LEFT COLUMN (x 15–205) ═════════════════════════ -->

  <!-- ── Außentemperatur card (y 65–187) ─────────────────────────────────── -->
  <rect x="15" y="65" width="190" height="122" rx="10"
        fill="url(#card)" filter="url(#shadow)" stroke="#263238" stroke-width="1"/>
  <text x="110" y="86"  text-anchor="middle" font-size="10" fill="#90a4ae"
        font-weight="bold" letter-spacing="1">AUSSENTEMPERATUR</text>
  <text x="110" y="132" text-anchor="middle" font-size="44"
        font-weight="bold" fill="#48cae4" filter="url(#glow)">6.9°</text>
  <text x="110" y="153" text-anchor="middle" font-size="10" fill="#546e7a">Mittel: 7.0°</text>
  <text x="110" y="170" text-anchor="middle" font-size="8"  fill="#37474f">T6 · sensor.aussentemperatur</text>

  <!-- ── Wärmemengenzähler card (y 197–505) ───────────────────────────────── -->
  <rect x="15" y="197" width="190" height="308" rx="10"
        fill="url(#card)" filter="url(#shadow)" stroke="#263238" stroke-width="1"/>
  <rect x="15" y="197" width="190" height="26" rx="10" fill="#f57f17" opacity="0.12"/>
  <rect x="15" y="213" width="190" height="10" fill="url(#card)"/>
  <text x="110" y="214" text-anchor="middle" font-size="10"
        fill="#ffd54f" font-weight="bold" letter-spacing="1">WÄRMEMENGENZÄHLER</text>

  <text x="110" y="238" text-anchor="middle" font-size="9" fill="#78909c">Leistung</text>
  <text x="110" y="265" text-anchor="middle" font-size="24"
        font-weight="bold" fill="#ffd54f" filter="url(#glow)">12.50 kW</text>

  <line x1="25" y1="275" x2="195" y2="275" stroke="#263238" stroke-width="1"/>

  <text x="30"  y="291" font-size="9"  fill="#78909c">Durchfluss</text>
  <text x="197" y="291" text-anchor="end" font-size="11"
        font-weight="bold" fill="#b0bec5">450 l/h</text>

  <line x1="25" y1="300" x2="195" y2="300" stroke="#263238" stroke-width="1"/>

  <text x="30"  y="316" font-size="9" fill="#78909c">WMZ Vorlauf</text>
  <text x="197" y="316" text-anchor="end" font-size="12"
        font-weight="bold" fill="#f4511e">56.8°</text>
  <text x="30"  y="334" font-size="9" fill="#78909c">WMZ Rücklauf</text>
  <text x="197" y="334" text-anchor="end" font-size="12"
        font-weight="bold" fill="#fb8c00">46.0°</text>

  <line x1="25" y1="343" x2="195" y2="343" stroke="#263238" stroke-width="1"/>

  <text x="30"  y="359" font-size="9" fill="#78909c">Spreizung</text>
  <text x="197" y="359" text-anchor="end" font-size="12"
        font-weight="bold" fill="#fb8c00">10.8 K</text>

  <line x1="25" y1="368" x2="195" y2="368" stroke="#263238" stroke-width="1"/>

  <text x="110" y="387" text-anchor="middle" font-size="9" fill="#78909c">Energie gesamt</text>
  <text x="110" y="415" text-anchor="middle" font-size="22"
        font-weight="bold" fill="#81c784" filter="url(#glow)">1234.5 kWh</text>
  <text x="110" y="432" text-anchor="middle" font-size="8" fill="#37474f">kumuliert</text>

  <line x1="25" y1="442" x2="195" y2="442" stroke="#263238" stroke-width="1"/>

  <text x="30"  y="457" font-size="9" fill="#78909c">Status ÜST</text>
  <text x="197" y="457" text-anchor="end" font-size="10"
        font-weight="bold" fill="#69f0ae">EIN</text>
  <text x="30"  y="476" font-size="9" fill="#78909c">Zubringpumpe</text>
  <text x="197" y="476" text-anchor="end" font-size="10"
        font-weight="bold" fill="#00e676">EIN</text>

  <!-- ════════════════════ CENTRE — ÜBERGABESTATION (x 215–473) ══════════════ -->
  <rect x="215" y="65" width="258" height="440" rx="10"
        fill="url(#card)" filter="url(#shadow)" stroke="#263238" stroke-width="1"/>
  <rect x="215" y="65"  width="258" height="26" rx="10" fill="#1b5e20" opacity="0.30"/>
  <rect x="215" y="81"  width="258" height="10" fill="url(#card)"/>
  <circle cx="233" cy="78" r="5" fill="#4caf50" class="pu"/>
  <text x="246" y="83" font-size="11" fill="#a5d6a7"
        font-weight="bold" letter-spacing="1">ÜBERGABESTATION</text>
  <text x="464" y="83" text-anchor="end" font-size="9"
        fill="#4caf50" font-weight="bold">EIN</text>

  <!-- Heat exchanger icon -->
  <rect x="228" y="101" width="83" height="72" rx="6" fill="none"
        stroke="#ff6b35" stroke-width="1.5" opacity="0.50"/>
  <line x1="238" y1="113" x2="301" y2="113" stroke="#e63946" stroke-width="2.0" opacity="0.75"/>
  <line x1="238" y1="123" x2="301" y2="123" stroke="#48cae4" stroke-width="2.0" opacity="0.65"/>
  <line x1="238" y1="133" x2="301" y2="133" stroke="#e63946" stroke-width="2.0" opacity="0.55"/>
  <line x1="238" y1="143" x2="301" y2="143" stroke="#48cae4" stroke-width="2.0" opacity="0.65"/>
  <line x1="238" y1="153" x2="301" y2="153" stroke="#e63946" stroke-width="1.5" opacity="0.38"/>
  <line x1="238" y1="163" x2="301" y2="163" stroke="#48cae4" stroke-width="1.5" opacity="0.38"/>
  <text x="269" y="180" text-anchor="middle" font-size="9"
        fill="#546e7a" font-weight="bold">WT</text>

  <!-- RL Primär T7 badge -->
  <text x="388" y="106" text-anchor="middle" font-size="9" fill="#78909c">RL Primär (T7)</text>
  <rect x="323" y="110" width="130" height="28" rx="6"
        fill="#fb8c0022" stroke="#fb8c00" stroke-width="1" filter="url(#innerShadow)"/>
  <text x="388" y="129" text-anchor="middle" font-size="17"
        font-weight="bold" fill="#fb8c00">46.0°</text>

  <!-- VL Sekundär T8 badge -->
  <text x="388" y="150" text-anchor="middle" font-size="9" fill="#78909c">VL Sekundär (T8)</text>
  <rect x="323" y="154" width="130" height="28" rx="6"
        fill="#f4511e22" stroke="#f4511e" stroke-width="1" filter="url(#innerShadow)"/>
  <text x="388" y="173" text-anchor="middle" font-size="17"
        font-weight="bold" fill="#f4511e">56.8°</text>

  <text x="326" y="193" font-size="9" fill="#546e7a">Soll:&#160;<tspan
        font-weight="bold" fill="#90a4ae">55.5°</tspan></text>
  <text x="326" y="207" font-size="9" fill="#546e7a">Max RL:&#160;<tspan
        font-weight="bold" fill="#90a4ae">58.6°</tspan></text>

  <line x1="225" y1="215" x2="463" y2="215" stroke="#263238" stroke-width="1"/>
  <text x="234" y="231" font-size="9"  fill="#78909c">Spreizung (T8 – T7)</text>
  <text x="460" y="231" text-anchor="end" font-size="12"
        font-weight="bold" fill="#fb8c00">10.8 K</text>

  <line x1="225" y1="239" x2="463" y2="239" stroke="#263238" stroke-width="1"/>
  <text x="234" y="255" font-size="9"  fill="#78909c">Leistung</text>
  <text x="460" y="255" text-anchor="end" font-size="12"
        font-weight="bold" fill="#ffd54f">12.50 kW</text>

  <line x1="225" y1="263" x2="463" y2="263" stroke="#263238" stroke-width="1"/>
  <text x="234" y="279" font-size="9"  fill="#78909c">Durchfluss</text>
  <text x="460" y="279" text-anchor="end" font-size="12"
        font-weight="bold" fill="#b0bec5">450 l/h</text>

  <line x1="225" y1="287" x2="463" y2="287" stroke="#263238" stroke-width="1"/>
  <text x="234" y="303" font-size="9"  fill="#78909c">Energie</text>
  <text x="460" y="303" text-anchor="end" font-size="12"
        font-weight="bold" fill="#81c784">1234.5 kWh</text>

  <line x1="225" y1="311" x2="463" y2="311" stroke="#263238" stroke-width="1"/>
  <text x="234" y="327" font-size="9"  fill="#78909c">Status ÜST</text>
  <text x="460" y="327" text-anchor="end" font-size="12"
        font-weight="bold" fill="#69f0ae">EIN</text>

  <line x1="225" y1="335" x2="463" y2="335" stroke="#263238" stroke-width="1"/>

  <!-- Zubringpumpe row with pump icon (active) -->
  <text x="234" y="358" font-size="9" fill="#78909c">Zubringpumpe</text>
  <g transform="translate(435,356)">
    <circle r="17" fill="#00c853" stroke="#00e676" stroke-width="2" filter="url(#glow)"/>
    <path d="M0,-11 L7,5 L-7,5Z" fill="white"/>
    <path d="M0,-11 L7,5 L-7,5Z" fill="white" transform="rotate(120)"/>
    <path d="M0,-11 L7,5 L-7,5Z" fill="white" transform="rotate(240)"/>
    <circle r="4" fill="#00c853"/>
    <text y="30" text-anchor="middle" font-size="9" font-weight="bold" fill="#00e676">ON</text>
  </g>

  <line x1="225" y1="390" x2="463" y2="390" stroke="#263238" stroke-width="1"/>

  <text x="234" y="407" font-size="9"  fill="#78909c">Pumpe HK1</text>
  <text x="460" y="407" text-anchor="end" font-size="10"
        font-weight="bold" fill="#00e676">EIN</text>
  <text x="234" y="425" font-size="9"  fill="#78909c">Pumpe Boiler</text>
  <text x="460" y="425" text-anchor="end" font-size="10"
        font-weight="bold" fill="#546e7a">AUS</text>

  <!-- ═══════════════════ DISTRIBUTION PIPES (x 487/504, y 88–505) ═══════════ -->
  <line x1="487" y1="88" x2="487" y2="505" stroke="#e63946" stroke-width="5" opacity="0.85"/>
  <line x1="487" y1="88" x2="487" y2="505" stroke="#ff6b35" stroke-width="3"
        stroke-dasharray="12,12" class="fr" opacity="0.50"/>
  <line x1="504" y1="88" x2="504" y2="505" stroke="#0077b6" stroke-width="5" opacity="0.85"/>
  <line x1="504" y1="88" x2="504" y2="505" stroke="#48cae4" stroke-width="3"
        stroke-dasharray="12,12" class="fl" opacity="0.50"/>
  <text x="487" y="84" text-anchor="middle" font-size="8" fill="#e63946" font-weight="bold">VL</text>
  <text x="504" y="84" text-anchor="middle" font-size="8" fill="#48cae4" font-weight="bold">RL</text>
  <!-- Mid-pipe badges -->
  <rect x="461" y="396" width="52" height="16" rx="3" fill="#0d1321"
        stroke="#e63946" stroke-width="1" opacity="0.80"/>
  <text x="487" y="408" text-anchor="middle" font-size="7" fill="#e63946">VORLAUF</text>
  <rect x="479" y="416" width="52" height="16" rx="3" fill="#0d1321"
        stroke="#48cae4" stroke-width="1" opacity="0.80"/>
  <text x="505" y="428" text-anchor="middle" font-size="7" fill="#48cae4">RÜCKLAUF</text>

  <!-- ÜST ↔ Distribution connectors -->
  <line x1="473" y1="166" x2="487" y2="166" stroke="#e63946" stroke-width="3" opacity="0.85"/>
  <line x1="473" y1="166" x2="487" y2="166" stroke="#ff6b35" stroke-width="2"
        stroke-dasharray="6,5" class="fr" opacity="0.70"/>
  <line x1="473" y1="355" x2="504" y2="355" stroke="#0077b6" stroke-width="3" opacity="0.85"/>
  <line x1="473" y1="355" x2="504" y2="355" stroke="#48cae4" stroke-width="2"
        stroke-dasharray="6,5" class="fl" opacity="0.70"/>

  <!-- ═══════════════════════ HEIZKREIS 1 (x 520–1035, y 65–202) ═══════════ -->
  <rect x="520" y="65" width="515" height="137" rx="10"
        fill="url(#card)" filter="url(#shadow)" stroke="#263238" stroke-width="1"/>
  <rect x="520" y="65"  width="515" height="26" rx="10" fill="#1b5e20" opacity="0.30"/>
  <rect x="520" y="81"  width="515" height="10" fill="url(#card)"/>
  <circle cx="537" cy="78" r="5" fill="#00e676" class="pu"/>
  <text x="549" y="83" font-size="12" fill="#a5d6a7"
        font-weight="bold" letter-spacing="1">HEIZKREIS 1</text>
  <rect  x="966" y="69" width="64" height="18" rx="4" fill="#1b5e20"/>
  <text x="998" y="82" text-anchor="middle" font-size="9"
        fill="#69f0ae" font-weight="bold">EIN</text>

  <!-- HK1 VL pipe -->
  <line x1="487" y1="127" x2="1035" y2="127" stroke="#e63946" stroke-width="3" opacity="0.85"/>
  <line x1="487" y1="127" x2="1035" y2="127" stroke="#ff6b35" stroke-width="2"
        stroke-dasharray="8,8" class="fr" opacity="0.60"/>
  <!-- HK1 RL pipe -->
  <line x1="504" y1="170" x2="1035" y2="170" stroke="#0077b6" stroke-width="3" opacity="0.85"/>
  <line x1="504" y1="170" x2="1035" y2="170" stroke="#48cae4" stroke-width="2"
        stroke-dasharray="8,8" class="fl" opacity="0.60"/>
  <text x="514" y="122" font-size="7" fill="#e63946" opacity="0.80">VL</text>
  <text x="514" y="180" font-size="7" fill="#48cae4" opacity="0.80">RL</text>

  <!-- Mixer box -->
  <rect x="536" y="113" width="72" height="30" rx="6" fill="#263238"
        stroke="#2e7d32" stroke-width="1"/>
  <text x="572" y="124" text-anchor="middle" font-size="8"  fill="#78909c">MISCHER</text>
  <text x="572" y="137" text-anchor="middle" font-size="10"
        font-weight="bold" fill="#66bb6a">STAND</text>

  <!-- Pump HK1 (active) -->
  <g transform="translate(660,127)">
    <circle r="17" fill="#00c853" stroke="#00e676" stroke-width="2" filter="url(#glow)"/>
    <path d="M0,-11 L7,5 L-7,5Z" fill="white"/>
    <path d="M0,-11 L7,5 L-7,5Z" fill="white" transform="rotate(120)"/>
    <path d="M0,-11 L7,5 L-7,5Z" fill="white" transform="rotate(240)"/>
    <circle r="4" fill="#00c853"/>
    <text y="30" text-anchor="middle" font-size="9" font-weight="bold" fill="#00e676">ON</text>
  </g>

  <!-- VL temperature badge -->
  <text x="762" y="108" text-anchor="middle" font-size="8" fill="#78909c">VORLAUF</text>
  <rect x="712" y="111" width="100" height="30" rx="6"
        fill="#fb8c001a" stroke="#fb8c00" stroke-width="1" filter="url(#innerShadow)"/>
  <text x="762" y="131" text-anchor="middle" font-size="17"
        font-weight="bold" fill="#fb8c00">47.4°</text>

  <!-- Soll badge -->
  <text x="873" y="108" text-anchor="middle" font-size="8" fill="#78909c">SOLL</text>
  <rect x="823" y="111" width="100" height="30" rx="6"
        fill="#26323866" stroke="#37474f" stroke-width="1"/>
  <text x="873" y="131" text-anchor="middle" font-size="17"
        font-weight="bold" fill="#90a4ae">45.1°</text>

  <!-- Delta badge -->
  <text x="979" y="108" text-anchor="middle" font-size="8" fill="#78909c">DELTA</text>
  <rect x="929" y="111" width="100" height="30" rx="6"
        fill="#43a0471a" stroke="#43a047" stroke-width="1"/>
  <text x="979" y="131" text-anchor="middle" font-size="17"
        font-weight="bold" fill="#43a047">+2.3°</text>

  <!-- ══════════════════════ BOILERKREIS 1 (x 520–1035, y 218–500) ══════════ -->
  <rect x="520" y="218" width="515" height="282" rx="10"
        fill="url(#card)" filter="url(#shadow)" stroke="#263238" stroke-width="1"/>
  <rect x="520" y="218" width="515" height="26" rx="10" fill="#37474f" opacity="0.15"/>
  <rect x="520" y="234" width="515" height="10" fill="url(#card)"/>
  <circle cx="537" cy="231" r="5" fill="#546e7a" class="pu"/>
  <text x="549" y="236" font-size="12" fill="#90a4ae"
        font-weight="bold" letter-spacing="1">BOILERKREIS 1</text>
  <rect  x="966" y="222" width="64" height="18" rx="4" fill="#37474f"/>
  <text x="998" y="235" text-anchor="middle" font-size="9"
        fill="#78909c" font-weight="bold">AUS</text>

  <!-- Boiler VL pipe -->
  <line x1="487" y1="295" x2="650" y2="295" stroke="#e63946" stroke-width="3" opacity="0.28"/>
  <!-- Boiler RL pipe -->
  <line x1="504" y1="455" x2="650" y2="455" stroke="#0077b6" stroke-width="3" opacity="0.28"/>
  <text x="514" y="290" font-size="7" fill="#e63946" opacity="0.80">VL</text>
  <text x="514" y="465" font-size="7" fill="#48cae4" opacity="0.80">RL</text>

  <!-- Pump Boiler (inactive) -->
  <g transform="translate(612,295)">
    <circle r="17" fill="#37474f" stroke="#546e7a" stroke-width="2"/>
    <path d="M0,-11 L7,5 L-7,5Z" fill="#78909c"/>
    <path d="M0,-11 L7,5 L-7,5Z" fill="#78909c" transform="rotate(120)"/>
    <path d="M0,-11 L7,5 L-7,5Z" fill="#78909c" transform="rotate(240)"/>
    <circle r="4" fill="#37474f"/>
    <text y="30" text-anchor="middle" font-size="9" font-weight="bold" fill="#546e7a">OFF</text>
  </g>

  <!-- Heating coil hint -->
  <line x1="657" y1="295" x2="657" y2="455"
        stroke="#e63946" stroke-width="1.5" stroke-dasharray="5,5" opacity="0.30"/>

  <!-- ── Tank visualization — fill 70% (55.9°/80) ── -->
  <rect x="650" y="252" width="70" height="228" rx="9"
        fill="#111827" stroke="#546e7a" stroke-width="2"/>
  <rect x="654" y="256" width="62" height="220" rx="5" fill="#0d1321"/>
  <!-- Fill from bottom: fillPx=154, fillTop=322 -->
  <rect x="654" y="322" width="62" height="154" rx="3" fill="#f4511e" opacity="0.45"/>
  <line x1="654" y1="322" x2="716" y2="322"
        stroke="#f4511e" stroke-width="1.5" opacity="0.70" stroke-dasharray="4,3"/>
  <!-- Dome cap -->
  <ellipse cx="685" cy="252" rx="34" ry="7" fill="#1a2235" stroke="#546e7a" stroke-width="1.5"/>
  <!-- Labels -->
  <text x="685" y="270" text-anchor="middle" font-size="8" fill="#90a4ae" font-weight="bold">SP1</text>
  <text x="685" y="472" text-anchor="middle" font-size="8" fill="#546e7a">70%</text>
  <!-- Pipe connection dots -->
  <circle cx="650" cy="295" r="5" fill="#e63946" opacity="0.80"/>
  <circle cx="650" cy="455" r="5" fill="#0077b6" opacity="0.80"/>

  <!-- ── Right info panel ── -->
  <text x="875" y="265" text-anchor="middle" font-size="9"
        fill="#f48fb1" letter-spacing="1">T9 OBEN (SPEICHER)</text>
  <rect x="733" y="271" width="284" height="50" rx="8"
        fill="#4a142833" stroke="#880e4f" stroke-width="1.5" filter="url(#innerShadow)"/>
  <text x="875" y="311" text-anchor="middle" font-size="34"
        font-weight="bold" fill="#f8bbd0" filter="url(#glow)">55.9°</text>

  <text x="875" y="337" text-anchor="middle" font-size="9" fill="#78909c">SOLLTEMPERATUR</text>
  <rect x="733" y="343" width="284" height="40" rx="6"
        fill="#1f294066" stroke="#37474f" stroke-width="1.5"/>
  <text x="875" y="373" text-anchor="middle" font-size="28"
        font-weight="bold" fill="#90a4ae">55°</text>

  <!-- Status + Pumpe row -->
  <text x="775" y="401" text-anchor="middle" font-size="9" fill="#78909c">STATUS</text>
  <rect x="733" y="407" width="130" height="28" rx="5"
        fill="#37474f44" stroke="#37474f" stroke-width="1"/>
  <text x="798" y="426" text-anchor="middle" font-size="14"
        font-weight="bold" fill="#78909c">AUS</text>

  <text x="903" y="401" text-anchor="middle" font-size="9" fill="#78909c">PUMPE</text>
  <rect x="873" y="407" width="144" height="28" rx="5"
        fill="#37474f33" stroke="#546e7a" stroke-width="1"/>
  <text x="945" y="426" text-anchor="middle" font-size="14"
        font-weight="bold" fill="#546e7a">AUS</text>

  <text x="875" y="455" text-anchor="middle" font-size="9" fill="#78909c">Mischer HK1:&#160;<tspan
        font-weight="bold" fill="#66bb6a">STAND</tspan></text>

  <!-- ═══════════════════════ STATUS BAR (y 512–562) ═════════════════════════ -->
  <rect x="15" y="512" width="1020" height="50" rx="10"
        fill="url(#card)" filter="url(#shadow)" stroke="#263238" stroke-width="1"/>
  <rect x="27" y="522" width="34" height="32" rx="4"
        fill="#263238" stroke="#4caf50" stroke-width="1.5"/>
  <text x="44" y="534" text-anchor="middle" font-size="7" fill="#4caf50" font-weight="bold">ESP32</text>
  <text x="44" y="546" text-anchor="middle" font-size="6"  fill="#4caf50">C3</text>
  <text x="70" y="530" font-size="11" fill="#b0bec5" font-weight="bold">schneid-mr12.local</text>
  <text x="70" y="547" font-size="9"  fill="#546e7a">GPIO4=TX · GPIO3=RX · GPIO2=DE/RE · MAX485 · 19200 Bd</text>
  <circle cx="612" cy="526" r="5" fill="#4caf50" class="pu"/>
  <text   x="624" y="530" font-size="10" fill="#81c784">Modbus OK</text>
  <circle cx="706" cy="526" r="5" fill="#4caf50" class="pu"/>
  <text   x="718" y="530" font-size="10" fill="#81c784">WiFi OK</text>
  <circle cx="612" cy="547" r="4" fill="#4caf50" class="pu"/>
  <text   x="622" y="551" font-size="9" fill="#a5d6a7">ÜST: EIN</text>
  <circle cx="700" cy="547" r="4" fill="#00e676" class="pu"/>
  <text   x="710" y="551" font-size="9" fill="#a5d6a7">HK1: EIN</text>
  <circle cx="788" cy="547" r="4" fill="#546e7a" class="pu"/>
  <text   x="798" y="551" font-size="9" fill="#90a4ae">BK1: AUS</text>
  <circle cx="876" cy="547" r="4" fill="#00e676" class="pu"/>
  <text   x="886" y="551" font-size="9" fill="#81c784">Zubringer: EIN</text>
  <text x="1030" y="551" text-anchor="end" font-size="9" fill="#37474f">ESPHome</text>

</svg>
